<?xml version="1.0" standalone="no"?>
<!DOCTYPE svg PUBLIC "-//W3C//DTD SVG 20010904//EN"
 "http://www.w3.org/TR/2001/REC-SVG-20010904/DTD/svg10.dtd">
<svg version="1.1" id="Layer_1" xmlns="http://www.w3.org/2000/svg" xmlns:xlink="http://www.w3.org/1999/xlink" viewBox="0 0 800 600" xml:space="preserve">
<g transform="translate(0.000000,563.000000) scale(0.100000,-0.100000)"
fill="#000000" stroke="none">
<path d="M0 2815 l0 -2815 2781 0 2781 0 -6 73 c-3 39 -10 104 -16 142 -5 39
-9 110 -10 159 0 49 -5 127 -10 175 -6 47 -17 163 -26 256 -8 94 -19 199 -24
235 -5 36 -12 88 -16 115 l-5 50 25 -49 c13 -26 22 -56 19 -65 -4 -9 -2 -12 3
-8 12 11 84 -267 84 -328 0 -27 7 -58 14 -68 13 -16 15 -16 41 15 29 34 29 26
5 170 -23 136 -7 130 41 -17 104 -316 119 -383 155 -680 4 -33 8 -69 10 -80 1
-11 3 -37 3 -57 l1 -38 251 0 251 0 -6 28 c-3 15 -19 75 -35 135 -17 65 -25
110 -19 113 5 4 7 23 4 43 -5 28 -4 33 4 21 9 -12 11 -8 7 19 -2 19 2 54 9 78
8 26 9 43 3 43 -6 0 -6 6 0 19 17 32 5 141 -18 165 -21 20 -21 20 -22 1 0 -11
-2 -36 -3 -55 -2 -19 -4 -70 -6 -113 -2 -43 -6 -75 -10 -70 -3 4 -19 76 -34
158 -26 136 -54 263 -132 588 -14 60 -24 110 -22 113 3 2 15 -18 28 -45 16
-35 30 -51 48 -56 32 -8 127 -88 164 -139 18 -26 28 -51 28 -75 0 -65 -10 -68
-86 -22 -37 23 -71 41 -76 41 -4 0 -8 -11 -8 -24 0 -15 11 -31 33 -46 43 -31
119 -128 111 -142 -5 -7 0 -9 14 -6 12 3 26 0 32 -7 16 -19 25 -115 11 -115
-19 0 -12 -90 15 -195 22 -81 27 -127 30 -242 2 -119 0 -143 -12 -143 -8 0
-14 -10 -14 -25 0 -14 -4 -25 -9 -25 -4 0 -7 12 -5 27 4 28 4 28 -5 3 -16 -52
-31 -50 450 -50 316 1 449 4 449 12 0 7 4 7 13 0 17 -14 197 -13 197 1 0 6 -3
7 -7 4 -8 -9 -53 32 -53 48 0 6 6 23 13 38 12 27 31 35 42 17 3 -6 12 -10 18
-10 8 0 8 3 -2 9 -9 6 -10 11 -2 15 6 4 14 0 17 -9 4 -9 13 -14 20 -11 7 3 16
1 19 -4 4 -6 -5 -10 -18 -10 -13 0 -34 -11 -47 -25 -26 -28 -8 -36 21 -9 18
16 39 12 39 -8 0 -6 -9 -8 -20 -5 -13 3 -20 0 -20 -9 0 -8 5 -14 11 -14 6 0 9
-7 5 -15 -5 -14 28 -15 278 -15 272 1 284 2 289 21 3 10 1 19 -3 19 -4 0 -6
10 -2 22 3 14 2 19 -6 14 -16 -10 -15 23 3 54 14 27 9 80 -9 93 -8 5 -8 9 0
15 6 4 12 14 12 22 1 8 7 39 14 69 10 44 10 55 0 59 -10 3 -10 7 -1 18 8 10
13 72 16 177 2 89 4 171 5 182 0 11 0 34 -1 50 -1 17 0 56 2 88 4 46 2 59 -11
67 -15 9 -15 9 1 10 15 0 18 8 16 45 -2 25 -8 45 -13 45 -8 0 -7 3 0 8 17 11
25 72 15 114 -5 23 -5 40 2 47 7 7 6 15 -3 26 -12 14 -11 18 1 25 11 7 11 14
3 27 -8 13 -7 29 3 61 12 34 13 46 3 57 -9 11 -9 15 -1 15 7 0 11 21 11 55 0
34 4 55 11 55 8 0 8 4 0 14 -7 8 -9 25 -5 40 5 22 4 25 -12 19 -13 -5 -12 -1
5 16 19 19 21 25 10 33 -10 6 -10 11 -3 14 7 3 9 19 4 46 -4 22 -4 55 1 72 5
17 7 53 5 79 -2 26 0 47 4 47 4 0 4 21 0 48 -5 26 -5 51 -2 57 7 12 10 48 13
185 1 58 7 110 11 117 5 6 9 33 8 60 -2 75 8 270 14 301 4 15 9 56 11 92 3 36
7 90 9 120 3 30 8 102 11 160 4 58 9 123 11 145 2 22 6 67 8 101 10 136 29
301 39 341 10 36 15 42 32 37 14 -4 12 0 -7 13 -31 20 -36 33 -13 33 8 0 15 5
15 10 0 6 -4 10 -10 10 -17 0 -12 67 6 74 24 9 26 8 19 -14 -5 -14 -2 -20 9
-20 25 0 20 49 -6 59 -16 6 -18 10 -9 16 8 4 17 2 22 -6 4 -7 11 -10 15 -6 4
4 2 13 -4 19 -19 19 -14 48 7 48 11 0 23 5 26 10 3 6 1 10 -4 10 -8 0 -7 7 1
19 12 19 13 19 37 -5 20 -20 22 -27 11 -34 -7 -4 -20 -6 -28 -2 -11 4 -14 1
-9 -11 4 -10 2 -16 -6 -14 -7 1 -12 -4 -11 -10 1 -7 2 -28 3 -45 2 -18 5 -27
8 -20 2 6 12 12 20 12 9 0 13 6 10 14 -3 8 1 20 9 26 11 10 14 9 14 -8 0 -12
5 -24 10 -27 20 -12 10 -27 -15 -21 -20 5 -23 3 -18 -11 14 -41 46 -60 36 -23
-4 14 0 20 12 20 13 0 16 5 10 23 -17 56 -18 67 -2 61 8 -3 18 -1 22 5 3 6 0
11 -7 11 -8 0 -19 5 -25 11 -13 13 -5 51 9 43 5 -3 15 2 23 12 14 20 10 38 -6
29 -5 -4 -17 -2 -26 4 -17 9 -17 10 0 16 9 4 17 17 17 29 0 12 5 27 12 34 9 9
8 12 -4 12 -9 0 -20 -5 -23 -10 -4 -6 -11 -7 -17 -4 -15 9 20 34 47 34 12 0
31 -9 43 -20 12 -12 22 -16 22 -11 0 11 -24 37 -47 49 -20 12 -9 54 13 45 7
-3 14 0 14 6 0 6 8 3 18 -6 11 -12 14 -21 8 -25 -14 -9 -6 -15 29 -20 17 -3
24 -3 18 -1 -17 6 -17 20 0 26 9 4 9 6 0 6 -20 1 -15 38 5 44 9 2 25 8 36 12
15 7 17 5 12 -13 -5 -16 -2 -21 16 -25 18 -3 15 -5 -9 -6 -38 -1 -49 -14 -28
-31 13 -10 20 -10 39 -1 23 13 29 33 19 61 -11 30 -10 50 2 40 7 -5 15 -6 20
-2 4 4 6 -7 3 -25 -2 -18 0 -31 6 -30 6 1 9 -14 7 -37 -3 -37 -2 -38 23 -32
18 4 26 2 26 -6 0 -9 3 -9 10 2 6 9 5 17 -3 22 -9 6 -9 8 0 8 6 0 18 3 27 6
21 8 21 -14 -1 -38 -15 -17 -15 -18 5 -18 11 0 27 -7 36 -15 13 -13 15 -12 14
15 -1 16 -5 27 -11 23 -5 -3 -7 0 -5 8 3 9 17 13 38 11 26 -2 31 1 26 14 -4 9
-1 23 6 31 10 13 13 12 19 -4 3 -10 0 -27 -7 -39 -11 -16 -12 -25 -1 -47 6
-15 18 -29 25 -32 8 -3 7 3 -4 19 -20 32 0 46 25 17 11 -13 25 -19 34 -15 13
4 9 12 -19 36 -40 35 -47 78 -13 78 15 0 19 -4 15 -16 -4 -10 3 -26 19 -42 22
-22 29 -24 58 -14 26 8 28 10 9 11 -12 1 -25 8 -28 16 -4 8 -12 15 -19 15 -7
0 -15 9 -18 21 -6 22 11 69 25 69 4 0 9 12 9 28 1 16 3 20 6 10 4 -16 21 -23
46 -19 4 0 7 -3 7 -9 0 -5 -11 -10 -23 -10 -29 0 -40 -10 -28 -24 9 -11 11
-17 11 -36 0 -5 5 -10 10 -10 6 0 10 11 10 24 0 25 25 43 35 25 4 -5 -1 -12
-9 -15 -9 -3 -16 -15 -16 -26 0 -15 5 -18 20 -13 15 5 20 2 20 -11 0 -13 6
-15 32 -10 36 7 49 17 31 23 -16 6 -17 33 -2 33 6 0 13 -9 16 -20 3 -11 9 -20
14 -20 5 0 9 -7 9 -16 0 -10 6 -14 15 -10 9 3 15 0 15 -9 0 -11 -5 -12 -26 -5
-14 6 -29 8 -34 5 -12 -7 0 -46 20 -70 12 -13 16 -31 14 -52 -2 -18 1 -33 6
-33 6 0 10 15 10 34 0 19 4 38 10 41 17 10 11 25 -9 25 -27 0 -35 17 -12 23
26 6 111 -4 111 -13 0 -4 -7 -10 -15 -14 -8 -3 -15 -1 -15 4 0 6 -7 10 -15 10
-21 0 -19 -16 7 -42 20 -20 23 -21 26 -5 5 24 21 21 34 -7 9 -21 13 -23 24
-11 8 7 12 27 10 43 -2 17 1 36 6 44 7 10 9 10 7 -2 -4 -37 2 -50 21 -50 11 0
20 -5 20 -11 0 -6 -9 -8 -22 -4 -21 5 -21 5 2 -9 l24 -14 -24 -5 c-25 -4 -25
-4 2 -6 22 -1 28 4 33 28 6 28 7 29 36 14 24 -12 29 -21 29 -49 0 -19 5 -34
10 -34 6 0 8 12 6 26 -7 39 2 52 32 46 15 -3 24 -2 21 2 -3 3 -24 8 -47 10
-22 3 -50 9 -61 15 -11 6 -29 11 -39 11 -14 0 -19 6 -17 17 2 10 4 21 4 26 1
4 7 7 15 7 8 0 17 6 19 13 3 6 6 2 6 -10 1 -12 6 -25 11 -28 6 -4 8 -11 5 -16
-4 -5 9 -9 27 -8 18 0 27 3 20 6 -6 2 -10 9 -6 14 3 5 -4 9 -16 9 -17 0 -21 5
-18 28 2 17 -2 26 -10 24 -6 -1 -12 3 -12 8 0 6 12 9 28 8 21 -2 27 1 26 15
-3 28 19 20 40 -16 l19 -32 9 43 c10 44 14 48 38 31 11 -8 12 -12 2 -16 -6 -2
-12 -22 -12 -43 0 -32 4 -38 25 -42 14 -3 28 -1 31 4 6 10 24 1 24 -13 0 -5
-7 -9 -15 -9 -21 0 -19 -13 8 -38 27 -26 39 -28 31 -7 -4 10 0 15 11 15 9 0
14 4 11 9 -4 5 0 12 6 14 8 3 6 6 -4 6 -10 1 -18 5 -18 10 0 5 8 8 18 7 9 0
16 5 14 12 -1 6 3 12 9 12 6 0 9 -6 6 -13 -2 -6 -1 -21 4 -32 l8 -20 1 20 c0
18 2 18 20 -5 17 -21 21 -23 29 -10 9 12 11 12 16 -2 4 -9 13 -14 21 -11 10 4
12 0 8 -11 -4 -12 0 -16 15 -16 12 0 21 4 21 10 0 5 7 7 15 4 12 -5 15 2 15
29 0 34 -20 54 -41 41 -5 -3 -9 -1 -9 3 0 5 10 13 23 18 l22 10 3 728 2 727
-2020 0 c-1487 0 -2020 -3 -2020 -11 0 -8 -4 -8 -13 0 -18 14 -721 15 -712 1
4 -6 -4 -6 -21 0 -31 12 -364 12 -364 0 0 -4 -7 -10 -14 -13 -10 -4 -13 -1 -9
9 5 12 -2 15 -37 12 -49 -3 -65 -24 -26 -34 32 -8 52 -29 36 -39 -6 -4 -17 1
-25 11 -11 15 -15 16 -29 5 -22 -18 -22 -52 1 -44 11 4 14 3 9 -5 -9 -16 7
-15 22 0 8 8 12 9 12 1 0 -13 -57 -73 -69 -73 -40 0 -60 83 -28 118 9 10 17
28 17 40 0 18 -6 22 -30 22 -24 0 -30 -4 -30 -20 0 -17 -2 -19 -14 -8 -8 7
-12 17 -9 21 3 5 -3 7 -12 5 -12 -2 -20 -14 -22 -32 -2 -16 -13 -41 -24 -55
l-21 -26 7 28 c6 23 4 27 -14 27 -11 0 -25 -9 -31 -20 -7 -14 -7 -20 0 -20 5
0 10 -7 10 -15 0 -7 8 -18 17 -24 16 -8 15 -12 -10 -35 l-27 -25 0 24 c0 16
-6 25 -15 25 -8 0 -15 5 -15 10 0 20 -19 10 -22 -12 -4 -25 -28 -37 -28 -14 0
9 5 16 11 16 5 0 7 5 3 12 -5 8 -10 7 -18 -4 -6 -8 -20 -20 -31 -26 -11 -6
-14 -12 -7 -12 7 0 11 -4 7 -9 -3 -5 0 -13 6 -17 8 -5 8 -9 -2 -14 -15 -10
-39 -2 -39 12 0 6 -7 16 -17 23 -9 7 -13 17 -9 24 6 9 11 9 23 -1 14 -11 15
-10 8 12 -10 30 -10 39 0 63 6 13 2 17 -18 17 -14 0 -27 -7 -31 -15 -3 -8 -13
-15 -22 -15 -12 0 -15 -6 -10 -25 5 -19 1 -27 -16 -36 -48 -26 -66 -69 -29
-69 25 0 72 25 64 34 -4 4 0 4 10 0 25 -9 21 -23 -9 -34 -16 -7 -24 -16 -21
-24 7 -17 -18 -40 -33 -31 -5 3 -10 12 -10 19 0 8 -10 16 -23 18 -20 4 -23 0
-25 -26 -2 -17 -7 -32 -12 -34 -18 -7 2 -33 21 -27 21 7 26 -9 7 -21 -7 -5 -4
-10 10 -15 27 -10 52 -2 52 17 0 17 16 19 26 3 4 -8 9 -7 15 2 6 9 9 10 9 2 0
-6 3 -19 7 -29 4 -11 3 -15 -4 -11 -6 4 -21 -5 -32 -20 -21 -28 -21 -28 -27
-6 -3 13 -10 20 -15 17 -5 -3 -7 -10 -4 -15 4 -5 -11 -9 -33 -9 -32 0 -41 -4
-47 -22 -4 -13 -6 -29 -6 -35 1 -7 -5 -13 -14 -13 -8 0 -15 -4 -15 -10 0 -5
-9 -10 -20 -10 -25 0 -25 11 0 40 22 25 19 40 -8 34 -9 -2 -23 0 -30 4 -18 12
0 57 28 72 18 10 21 17 15 46 -6 33 -5 34 25 34 32 0 40 14 14 24 -8 3 -12 11
-9 16 4 7 -3 9 -22 5 l-28 -7 24 20 c15 12 22 25 18 35 -3 9 -2 19 3 22 6 4
10 -1 10 -9 0 -9 5 -16 10 -16 6 0 10 -9 10 -20 0 -11 5 -20 10 -20 6 0 10 14
10 31 0 32 11 48 49 68 19 11 22 19 18 44 -3 18 -8 40 -12 50 -5 12 -2 17 8
17 9 0 19 5 22 10 4 7 -708 10 -2129 10 l-2136 0 0 -2815z m4935 2785 c3 -5 1
-10 -4 -10 -6 0 -11 5 -11 10 0 6 2 10 4 10 3 0 8 -4 11 -10z m-286 -50 c19 0
12 -22 -9 -27 -21 -6 -27 -19 -11 -25 11 -4 2 -58 -9 -58 -17 0 -30 61 -18 83
10 20 10 21 -5 8 -15 -11 -17 -11 -17 2 0 8 7 17 15 21 9 3 12 12 8 23 -5 14
-1 13 14 -4 11 -13 25 -23 32 -23z m590 14 c-12 -15 -11 -16 7 -10 14 4 26 1
35 -11 12 -15 12 -16 -4 -10 -10 4 -27 7 -38 7 -21 0 -26 25 -6 33 20 9 20 8
6 -9z m-205 -19 c22 -16 15 -18 -33 -9 -17 4 -28 10 -25 15 8 13 37 10 58 -6z
m-844 -11 c0 -17 -22 -14 -28 4 -2 7 3 12 12 12 9 0 16 -7 16 -16z m1470 6 c8
-5 12 -11 10 -14 -3 -2 -14 2 -24 10 -22 15 -10 19 14 4z m-806 -15 c-4 -8
-12 -15 -18 -15 -13 0 -36 -41 -36 -64 0 -8 -8 -16 -17 -20 -10 -3 -24 -9 -31
-12 -8 -4 -10 0 -6 9 3 8 14 17 25 20 10 3 19 14 19 25 0 10 9 31 21 46 22 28
52 36 43 11z m496 0 c0 -8 -4 -15 -10 -15 -5 0 -7 7 -4 15 4 8 8 15 10 15 2 0
4 -7 4 -15z m705 -15 c3 -5 1 -10 -4 -10 -6 0 -11 5 -11 10 0 6 2 10 4 10 3 0
8 -4 11 -10z m75 -16 c0 -16 -16 -19 -25 -4 -8 13 4 32 16 25 5 -4 9 -13 9
-21z m-897 -63 c-9 -12 -23 18 -16 35 6 17 8 17 13 -6 4 -14 5 -27 3 -29z
m-539 -6 c-6 -16 -24 -21 -24 -7 0 11 11 22 21 22 5 0 6 -7 3 -15z m-88 -11
c-3 -9 -6 -22 -6 -30 0 -8 -4 -14 -10 -14 -11 0 -14 43 -3 53 12 13 25 7 19
-9z m-102 -55 c-2 -4 -13 -7 -24 -6 -23 1 -22 0 -14 21 5 12 9 13 24 4 10 -7
17 -15 14 -19z m-148 -6 c-3 -27 -36 -47 -36 -22 0 10 27 45 37 48 1 1 0 -11
-1 -26z m214 17 c0 -5 -4 -10 -10 -10 -5 0 -10 5 -10 10 0 6 5 10 10 10 6 0
10 -4 10 -10z m130 -23 c0 -5 -4 -5 -10 -2 -5 3 -10 14 -10 23 0 15 2 15 10 2
5 -8 10 -19 10 -23z m380 6 c-1 -5 -8 -19 -16 -33 -8 -14 -13 -17 -10 -7 3 10
6 25 6 33 0 8 5 14 10 14 6 0 10 -3 10 -7z m-318 -21 c3 -9 1 -26 -3 -37 -5
-13 -8 -15 -8 -5 -1 8 -4 25 -7 38 -4 12 -2 22 4 22 5 0 12 -8 14 -18z m-162
-2 c0 -5 -4 -10 -10 -10 -5 0 -10 5 -10 10 0 6 5 10 10 10 6 0 10 -4 10 -10z
m220 0 c8 -5 12 -12 9 -15 -8 -8 -39 5 -39 16 0 11 11 11 30 -1z m-390 -10 c0
-5 -2 -10 -4 -10 -3 0 -8 5 -11 10 -3 6 -1 10 4 10 6 0 11 -4 11 -10z m90 0
c8 -5 11 -10 5 -10 -5 0 -17 5 -25 10 -8 5 -10 10 -5 10 6 0 17 -5 25 -10z
m-92 -50 c-1 -16 -5 -30 -10 -30 -9 0 -10 7 -2 38 9 30 13 28 12 -8z m172 -15
c-7 -9 -15 -13 -19 -10 -3 3 1 10 9 15 21 14 24 12 10 -5z m-208 -59 c-2 -25
-8 -46 -12 -46 -12 0 -21 45 -10 48 6 2 10 15 10 28 0 14 3 23 8 20 4 -2 6
-25 4 -50z m-72 -6 c-7 -13 -6 -20 3 -23 6 -2 0 -6 -16 -9 -21 -4 -25 -3 -16
8 5 7 9 18 8 26 -4 32 1 41 16 28 10 -9 12 -17 5 -30z m240 30 c0 -5 -2 -10
-4 -10 -3 0 -8 5 -11 10 -3 6 -1 10 4 10 6 0 11 -4 11 -10z m-494 -54 c4 -18
-2 -35 -21 -60 -22 -29 -25 -39 -15 -51 13 -16 6 -35 -15 -35 -9 0 -12 6 -8
16 5 14 1 16 -20 12 -29 -6 -37 9 -12 18 8 4 15 17 15 29 0 31 38 95 56 95 7
0 16 -11 20 -24z m2431 -8 c-3 -8 -6 -5 -6 6 -1 11 2 17 5 13 3 -3 4 -12 1
-19z m-1537 8 c0 -3 -4 -8 -10 -11 -5 -3 -10 -1 -10 4 0 6 5 11 10 11 6 0 10
-2 10 -4z m-824 -72 c-4 -12 -2 -15 9 -10 22 8 18 -2 -12 -30 -28 -26 -40 -25
-28 3 5 10 9 23 10 28 1 6 3 13 3 18 1 4 7 7 13 7 6 0 8 -7 5 -16z m94 -5 c0
-5 -11 -9 -25 -9 -26 0 -34 15 -12 23 16 5 37 -3 37 -14z m520 11 c0 -5 -5
-10 -11 -10 -5 0 -7 5 -4 10 3 6 8 10 11 10 2 0 4 -4 4 -10z m-445 -10 c3 -5
1 -10 -4 -10 -6 0 -11 5 -11 10 0 6 2 10 4 10 3 0 8 -4 11 -10z m125 0 c0 -5
-5 -10 -11 -10 -5 0 -7 5 -4 10 3 6 8 10 11 10 2 0 4 -4 4 -10z m17 -32 c-3
-8 -6 -5 -6 6 -1 11 2 17 5 13 3 -3 4 -12 1 -19z m-362 2 c3 -5 -1 -10 -10
-10 -9 0 -13 5 -10 10 3 6 8 10 10 10 2 0 7 -4 10 -10z m285 6 c0 -2 -7 -6
-15 -10 -8 -3 -15 -1 -15 4 0 6 7 10 15 10 8 0 15 -2 15 -4z m2066 -32 c-9 -9
-20 -14 -23 -10 -4 3 2 13 13 20 25 18 31 12 10 -10z m-2276 -9 c0 -8 -4 -15
-10 -15 -5 0 -7 -7 -3 -16 3 -9 -3 -21 -16 -31 -14 -9 -20 -21 -16 -30 3 -9 0
-22 -6 -30 -13 -15 -13 -15 17 -29 18 -7 20 -13 13 -31 l-8 -23 -25 23 c-26
24 -42 92 -24 103 5 3 -3 17 -17 32 -19 18 -22 27 -13 33 15 10 28 2 28 -16 0
-8 12 -1 29 16 32 32 51 37 51 14z m180 -4 c0 -6 -4 -13 -10 -16 -5 -3 -10 1
-10 9 0 9 5 16 10 16 6 0 10 -4 10 -9z m285 -1 c3 -6 -1 -7 -9 -4 -18 7 -21
14 -7 14 6 0 13 -4 16 -10z m-2766 -114 c-7 -17 -22 -43 -32 -58 -12 -17 -18
-35 -14 -49 6 -24 -8 -59 -23 -59 -15 0 -11 53 5 74 11 14 12 23 4 32 -16 20
8 109 40 147 l26 31 3 -43 c2 -24 -2 -58 -9 -75z m2931 64 c0 -5 -5 -10 -11
-10 -5 0 -7 5 -4 10 3 6 8 10 11 10 2 0 4 -4 4 -10z m-273 -21 c-14 -23 -52
-26 -44 -5 4 9 -1 16 -11 19 -9 2 2 4 25 4 38 0 40 -1 30 -18z m57 -13 c-3
-14 -10 -26 -14 -26 -5 0 -3 13 3 30 13 35 21 33 11 -4z m-614 5 c0 -6 -4 -13
-10 -16 -5 -3 -10 1 -10 9 0 9 5 16 10 16 6 0 10 -4 10 -9z m370 -17 c0 -8 -4
-12 -10 -9 -5 3 -10 10 -10 16 0 5 5 9 10 9 6 0 10 -7 10 -16z m-340 -4 c0 -5
-2 -10 -4 -10 -3 0 -8 5 -11 10 -3 6 -1 10 4 10 6 0 11 -4 11 -10z m34 -29 c3
-5 -5 -16 -19 -25 -24 -16 -25 -15 -25 3 0 11 8 22 18 24 9 3 18 5 19 6 1 0 4
-3 7 -8z m2406 -12 c0 -5 -4 -9 -10 -9 -5 0 -10 7 -10 16 0 8 5 12 10 9 6 -3
10 -10 10 -16z m-2240 7 c0 -3 -4 -8 -10 -11 -5 -3 -10 -1 -10 4 0 6 5 11 10
11 6 0 10 -2 10 -4z m326 -10 c18 -19 18 -36 -1 -36 -9 0 -12 6 -9 15 4 8 1
15 -5 15 -6 0 -11 5 -11 10 0 14 9 12 26 -4z m1945 -33 c-12 -20 -14 -14 -5
12 4 9 9 14 11 11 3 -2 0 -13 -6 -23z m-2161 2 c0 -8 -4 -15 -10 -15 -5 0 -10
7 -10 15 0 8 5 15 10 15 6 0 10 -7 10 -15z m190 -5 c0 -5 -5 -10 -11 -10 -5 0
-7 5 -4 10 3 6 8 10 11 10 2 0 4 -4 4 -10z m1902 -25 c3 -13 2 -22 -2 -20 -11
7 -20 45 -10 45 4 0 10 -11 12 -25z m-2415 -7 c-3 -8 -6 -5 -6 6 -1 11 2 17 5
13 3 -3 4 -12 1 -19z m134 0 c11 -20 12 -20 24 -4 8 11 15 13 20 7 9 -15 -3
-31 -33 -42 -32 -12 -57 8 -47 40 8 27 21 27 36 -1z m2329 13 c0 -17 -18 -21
-24 -6 -3 9 0 15 9 15 8 0 15 -4 15 -9z m-2485 -21 c3 -5 1 -10 -4 -10 -6 0
-11 5 -11 10 0 6 2 10 4 10 3 0 8 -4 11 -10z m553 -9 c3 -8 0 -11 -6 -7 -6 4
-17 -2 -24 -14 -15 -24 -28 -26 -28 -5 0 8 5 15 10 15 6 0 10 7 10 16 0 19 31
15 38 -5z m1947 -51 c8 0 17 -5 21 -12 5 -8 2 -9 -11 -4 -26 10 -38 -14 -18
-37 13 -13 14 -20 5 -29 -17 -17 -15 -26 8 -33 24 -8 26 -25 3 -25 -15 0 -14
-2 3 -15 19 -15 19 -15 0 -30 -18 -13 -18 -15 -3 -15 14 0 16 -4 8 -18 -12
-23 -9 -104 4 -114 7 -5 6 -11 -1 -15 -7 -5 -10 -20 -9 -35 2 -19 -1 -28 -11
-28 -8 0 -14 -4 -14 -10 0 -5 5 -10 11 -10 7 0 9 -12 7 -30 -3 -17 -1 -33 3
-36 4 -2 6 -23 4 -47 -2 -23 -6 -139 -10 -257 -3 -118 -7 -249 -10 -290 -2
-41 -7 -169 -10 -285 -9 -280 -13 -388 -20 -520 -3 -60 -7 -155 -10 -210 -7
-139 -16 -235 -24 -235 -9 0 -164 80 -178 91 -16 14 0 393 18 416 7 7 6 14 -1
18 -6 4 -8 14 -5 23 2 10 7 85 9 167 7 232 16 385 26 445 5 30 10 73 10 95 0
77 10 320 14 348 2 15 4 32 5 38 0 5 7 7 14 2 17 -11 37 -13 37 -3 0 11 -26
31 -32 24 -3 -2 -8 7 -10 21 -3 14 -1 25 3 25 5 0 5 10 0 23 -7 17 -4 29 10
46 17 21 19 66 4 91 -2 3 1 12 7 20 8 12 9 12 4 -2 -3 -10 -1 -20 4 -23 7 -5
7 3 -2 55 -6 37 15 92 38 100 29 11 32 24 4 17 -20 -5 -30 18 -11 25 5 2 11
12 13 23 1 11 8 23 13 27 6 4 0 8 -13 8 -20 0 -21 2 -11 21 9 17 13 19 20 8 6
-10 9 -8 9 9 0 13 -6 22 -15 22 -18 0 -19 9 -5 45 6 15 15 23 21 20 6 -4 8
-14 4 -22 -7 -20 3 -53 17 -53 6 0 8 12 5 27 -3 15 -1 36 4 45 8 15 5 18 -23
19 l-33 1 30 8 c17 4 22 8 13 9 -24 1 -23 7 7 39 14 15 26 38 26 52 2 24 2 24
6 -2 2 -16 11 -28 18 -28z m19 29 c-3 -5 -10 -7 -15 -3 -5 3 -7 10 -3 15 3 5
10 7 15 3 5 -3 7 -10 3 -15z m-2509 -58 c-3 -6 -11 -11 -17 -11 -6 0 -6 6 2
15 14 17 26 13 15 -4z m82 -10 c1 -1 -2 -14 -8 -29 -6 -19 -6 -38 0 -55 6 -16
7 -29 1 -32 -15 -9 -32 34 -25 66 5 22 3 29 -9 29 -9 0 -16 7 -16 15 0 12 7
14 28 11 15 -2 28 -5 29 -5z m258 -21 c14 -27 14 -30 0 -30 -8 0 -15 -5 -15
-11 0 -5 -5 -7 -10 -4 -6 4 -7 12 -1 22 4 9 6 24 4 34 -8 29 5 23 22 -11z
m-150 -10 c-3 -5 -12 -10 -18 -10 -7 0 -6 4 3 10 19 12 23 12 15 0z m-196 -36
c-11 -13 -11 -18 -1 -21 6 -3 12 -14 12 -26 -1 -19 -2 -20 -13 -6 -7 9 -16 16
-22 17 -5 1 -12 11 -13 23 -3 17 0 20 12 16 10 -4 19 -1 23 9 3 8 8 13 11 10
3 -3 -1 -13 -9 -22z m721 -19 c0 -16 -6 -25 -15 -25 -21 0 -31 30 -14 41 23
14 29 11 29 -16z m-480 -10 c0 -8 -4 -15 -10 -15 -5 0 -7 7 -4 15 4 8 8 15 10
15 2 0 4 -7 4 -15z m270 0 c0 -9 -6 -12 -15 -9 -8 4 -12 10 -9 15 8 14 24 10
24 -6z m93 -30 c8 -19 -13 -31 -23 -14 -9 14 -4 29 10 29 4 0 10 -7 13 -15z
m2317 -14 c0 -6 -4 -13 -10 -16 -5 -3 -10 1 -10 9 0 9 5 16 10 16 6 0 10 -4
10 -9z m-2260 -11 c0 -5 -4 -10 -10 -10 -5 0 -10 -9 -10 -20 0 -11 5 -20 10
-20 6 0 10 -7 10 -15 0 -8 7 -15 15 -15 21 0 19 -12 -5 -33 -31 -26 -56 -21
-79 17 -25 40 -27 58 -6 49 9 -3 15 -1 13 4 -3 10 41 52 55 53 4 0 7 -4 7 -10z
m-160 -24 c0 -18 -30 -30 -43 -17 -9 9 11 23 41 30 1 1 2 -5 2 -13z m2430 -29
c0 -12 -4 -29 -10 -37 -6 -10 -9 -2 -8 28 0 23 4 39 9 36 5 -3 9 -15 9 -27z
m2360 23 c0 -5 -4 -10 -10 -10 -5 0 -10 5 -10 10 0 6 5 10 10 10 6 0 10 -4 10
-10z m-2403 -22 c-3 -8 -6 -5 -6 6 -1 11 2 17 5 13 3 -3 4 -12 1 -19z m68 -38
c3 -5 2 -10 -4 -10 -5 0 -13 5 -16 10 -3 6 -2 10 4 10 5 0 13 -4 16 -10z
m-2383 -23 c25 -20 26 -25 15 -47 -27 -54 -85 -21 -72 41 8 35 21 36 57 6z
m-509 -2 c-3 -9 -8 -14 -10 -11 -3 3 -2 9 2 15 9 16 15 13 8 -4z m3473 -42
c-11 -11 -26 10 -26 35 l0 27 15 -29 c9 -16 13 -31 11 -33z m-3076 30 c0 -10
3 -29 6 -43 6 -24 6 -25 -9 -5 -18 22 -23 65 -7 65 6 0 10 -8 10 -17z m2457 2
c8 -21 -1 -28 -27 -20 -17 5 -19 10 -9 21 15 18 28 18 36 -1z m473 5 c0 -5 -5
-10 -11 -10 -5 0 -7 5 -4 10 3 6 8 10 11 10 2 0 4 -4 4 -10z m305 -75 c0 -72
-3 -86 -17 -91 -19 -6 -25 -24 -8 -24 6 0 10 5 10 10 0 6 7 10 15 10 9 0 18 7
21 15 5 12 10 13 20 4 9 -8 14 -8 14 -1 0 6 -9 14 -20 17 -14 4 -20 15 -20 36
0 20 4 28 12 23 8 -5 9 3 5 29 -3 21 -3 37 1 37 12 0 31 -51 25 -67 -4 -11 0
-14 18 -11 22 3 24 -1 27 -40 2 -24 -2 -49 -8 -57 -8 -10 -8 -14 2 -17 8 -3
12 -21 10 -54 -3 -77 -11 -211 -17 -299 -2 -44 -7 -147 -10 -230 -12 -320 -13
-354 -19 -416 -6 -68 -17 -283 -21 -439 -2 -52 -5 -129 -9 -170 -3 -41 -8
-163 -11 -270 -3 -107 -8 -215 -10 -240 -5 -55 -15 -291 -29 -695 -4 -115 -14
-266 -21 -335 -7 -69 -14 -159 -15 -200 -1 -41 -4 -91 -7 -110 -2 -19 -5 -46
-6 -60 -1 -14 -6 -31 -10 -38 -5 -7 -5 -21 -2 -33 4 -11 4 -32 0 -46 -8 -35
-31 -14 -38 35 -14 93 -23 126 -34 130 -7 2 -13 -1 -13 -7 0 -20 -16 -11 -17
10 -2 16 2 20 18 16 17 -5 20 -1 17 21 -2 15 -6 29 -10 32 -4 3 -1 19 8 34 8
16 13 31 11 33 -8 7 -37 -9 -31 -18 3 -5 1 -9 -3 -9 -12 0 -46 67 -40 77 3 5
2 15 -3 23 -8 13 -11 12 -23 -4 -14 -19 -15 -19 -28 2 -8 12 -20 22 -28 22
-10 0 -11 3 -2 14 9 11 7 15 -11 20 -14 3 -27 0 -34 -8 -7 -10 -15 -12 -25 -5
-12 8 -12 10 1 18 8 6 11 13 7 18 -4 4 -17 2 -27 -5 -17 -10 -20 -10 -20 3 0
8 6 15 14 15 20 0 27 38 9 56 -14 13 -14 17 3 30 11 9 13 13 7 9 -7 -3 -13 -1
-13 5 0 6 7 13 15 16 8 4 15 10 15 14 0 9 -40 1 -56 -12 -16 -12 -44 1 -44 21
0 9 7 27 16 39 15 22 15 23 -10 16 -25 -6 -25 -5 -21 35 2 22 -1 43 -6 46 -15
10 -10 28 6 21 9 -3 15 0 15 9 0 8 -4 15 -10 15 -5 0 -10 10 -10 23 0 38 -70
56 -92 24 -3 -6 -18 -11 -32 -12 -31 -1 -35 10 -61 175 -39 241 -65 353 -95
402 -11 18 -27 48 -37 66 -9 17 -22 32 -29 32 -7 0 -14 4 -16 9 -1 5 -17 17
-34 27 -40 25 -101 72 -137 107 -22 21 -27 33 -23 55 3 15 8 137 12 272 3 135
7 247 9 250 2 3 6 77 9 165 4 88 9 189 11 225 3 36 7 108 10 160 7 119 43 721
51 858 4 56 11 102 15 102 5 0 9 -9 9 -20 0 -11 7 -20 15 -20 9 0 12 -6 8 -17
-5 -12 -3 -14 8 -7 15 9 20 11 44 13 13 1 12 5 -5 23 -30 32 -24 41 7 12 l28
-26 16 21 c10 12 20 21 24 21 4 0 2 -7 -5 -15 -14 -17 -15 -17 23 -33 31 -13
47 -9 47 14 0 8 4 13 9 9 5 -3 12 -1 15 4 3 5 -2 12 -11 15 -13 5 -14 9 -4 19
13 13 27 -1 37 -41 8 -29 -1 -39 -20 -23 -12 10 -16 8 -21 -9 -4 -12 -4 -24
-1 -27 3 -4 6 1 6 10 0 9 3 17 8 17 11 -1 54 -72 47 -79 -4 -3 -11 2 -16 12
-6 9 -15 15 -20 12 -5 -4 -6 -11 -3 -17 5 -8 1 -9 -10 -5 -10 4 -22 7 -27 7
-5 0 -9 10 -10 23 -1 17 -3 15 -10 -10 -5 -18 -18 -35 -29 -38 -20 -6 -20 -7
2 -25 l23 -19 -22 -1 c-12 0 -24 6 -27 13 -4 6 -4 1 -2 -12 3 -14 1 -30 -5
-37 -7 -8 -7 -14 1 -19 5 -3 10 -19 10 -36 0 -29 13 -39 25 -19 10 16 22 11
30 -12 l7 -23 7 25 c6 21 4 27 -16 34 -33 14 -29 24 10 23 59 -1 83 10 82 38
-2 40 -21 53 -42 28 -10 -11 -24 -18 -33 -14 -19 7 -21 71 -3 71 7 0 13 -5 13
-11 0 -7 10 -9 24 -5 19 5 29 0 40 -16 l16 -22 2 29 c2 51 -2 67 -20 82 -12
10 -14 16 -4 19 6 3 12 14 12 25 0 20 34 27 45 9 3 -5 -3 -10 -14 -10 -28 0
-29 -45 -1 -62 24 -15 26 -46 5 -54 -21 -8 -19 -44 3 -45 14 0 14 -2 -3 -9
-16 -7 -13 -9 18 -9 20 -1 37 -6 37 -11 0 -6 -6 -10 -14 -8 -8 2 -15 -1 -15
-7 0 -5 7 -9 15 -9 8 1 14 -5 14 -13 0 -8 -4 -11 -10 -8 -5 3 -10 -1 -10 -10
0 -12 5 -15 16 -11 9 3 23 6 32 6 15 0 15 2 2 10 -10 7 -11 12 -4 18 12 8 12
51 -1 72 -6 10 -3 12 13 8 12 -3 26 0 31 6 8 9 5 12 -11 12 -15 -1 -24 6 -26
19 -4 17 -2 18 12 6 13 -11 17 -10 26 14 17 46 13 55 -26 55 -19 0 -33 -4 -30
-9 3 -4 18 -6 32 -3 19 3 25 1 20 -7 -4 -6 -19 -11 -34 -12 -24 0 -25 -1 -7
-9 19 -8 19 -9 -2 -9 -12 -1 -25 -5 -28 -11 -3 -5 -11 -10 -17 -10 -6 0 -4 8
5 18 19 21 24 53 6 35 -9 -9 -15 -8 -24 0 -16 15 0 38 21 30 8 -3 14 -1 14 5
0 5 8 12 18 16 9 3 23 9 30 12 7 3 12 -1 12 -10 0 -8 -10 -17 -22 -19 -13 -2
-9 -3 9 -1 25 2 34 -2 39 -19 6 -20 7 -20 21 -1 14 18 15 17 11 -14 -5 -37 10
-56 19 -23 3 12 13 21 23 21 11 0 17 7 16 17 0 10 7 19 17 21 12 2 17 -3 17
-20 0 -13 7 -33 15 -44 14 -18 14 -17 15 12 0 36 16 54 47 54 14 0 23 6 23 16
0 14 1 14 16 0 8 -9 19 -16 24 -16 12 0 7 73 -5 83 -5 5 5 5 23 2 42 -9 92 3
92 21 0 17 12 18 26 4 16 -16 40 16 25 33 -11 14 -5 27 13 27 7 0 11 -31 11
-85z m102 79 c-3 -3 -12 -4 -19 -1 -8 3 -5 6 6 6 11 1 17 -2 13 -5z m-172 -14
c3 -5 1 -10 -4 -10 -6 0 -11 5 -11 10 0 6 2 10 4 10 3 0 8 -4 11 -10z m1505 6
c0 -3 -4 -8 -10 -11 -5 -3 -10 -1 -10 4 0 6 5 11 10 11 6 0 10 -2 10 -4z
m-1887 -26 c-3 -12 -8 -19 -11 -16 -5 6 5 36 12 36 2 0 2 -9 -1 -20z m557 1
c0 -11 -5 -23 -12 -27 -7 -4 -8 -3 -4 4 4 7 2 12 -3 12 -6 0 -11 7 -11 15 0 8
7 15 15 15 8 0 15 -9 15 -19z m961 -24 c-10 -9 -11 -8 -5 6 3 10 9 15 12 12 3
-3 0 -11 -7 -18z m929 13 c0 -5 -5 -10 -11 -10 -5 0 -7 5 -4 10 3 6 8 10 11
10 2 0 4 -4 4 -10z m-2840 -10 c0 -8 -51 -40 -65 -40 -3 0 -5 8 -5 18 0 14 2
15 10 2 6 -10 10 -11 10 -2 0 6 9 12 20 12 11 0 20 5 20 10 0 6 2 10 5 10 3 0
5 -4 5 -10z m740 0 c0 -5 -2 -10 -4 -10 -3 0 -8 5 -11 10 -3 6 -1 10 4 10 6 0
11 -4 11 -10z m900 0 c0 -5 -5 -10 -11 -10 -5 0 -7 5 -4 10 3 6 8 10 11 10 2
0 4 -4 4 -10z m337 -22 c-3 -7 -5 -2 -5 12 0 14 2 19 5 13 2 -7 2 -19 0 -25z
m243 6 c0 -8 -4 -14 -8 -14 -4 0 -8 9 -8 19 0 11 4 17 8 15 4 -3 8 -12 8 -20z
m-1920 6 c0 -5 -4 -10 -10 -10 -5 0 -10 5 -10 10 0 6 5 10 10 10 6 0 10 -4 10
-10z m1530 0 c0 -5 -5 -10 -11 -10 -5 0 -7 5 -4 10 3 6 8 10 11 10 2 0 4 -4 4
-10z m-1770 -36 c0 -26 -17 -33 -26 -9 -8 20 3 48 16 40 5 -3 10 -17 10 -31z
m2804 21 c3 -9 0 -15 -9 -15 -8 0 -15 7 -15 15 0 8 4 15 9 15 5 0 11 -7 15
-15z m-2635 -12 c1 18 21 25 21 7 0 -5 0 -13 0 -17 0 -18 -35 -6 -37 12 l-3
20 9 -20 c8 -17 10 -18 10 -2z m1841 1 c0 -2 -9 -4 -21 -4 -11 0 -18 4 -14 10
5 8 35 3 35 -6z m880 8 c0 -13 -12 -22 -22 -16 -10 6 -1 24 13 24 5 0 9 -4 9
-8z m-2465 -22 c18 0 41 -3 50 -6 13 -5 11 -9 -11 -20 -24 -13 -28 -12 -40 3
-13 17 -13 17 -14 0 0 -30 -25 -13 -27 19 -1 16 0 23 3 17 3 -7 21 -13 39 -13z
m113 9 c-2 -6 -8 -10 -13 -10 -5 0 -11 4 -13 10 -2 6 4 11 13 11 9 0 15 -5 13
-11z m1046 -20 c-8 -13 -24 -1 -24 18 0 13 3 13 15 3 8 -7 12 -16 9 -21z m648
9 c-7 -7 -12 -8 -12 -2 0 14 12 26 19 19 2 -3 -1 -11 -7 -17z m458 7 c-7 -8
-17 -12 -22 -9 -6 4 -5 10 3 15 22 14 33 10 19 -6z m-2120 -11 c0 -8 -5 -12
-10 -9 -6 4 -8 11 -5 16 9 14 15 11 15 -7z m2270 6 c0 -5 -4 -10 -10 -10 -5 0
-10 5 -10 10 0 6 5 10 10 10 6 0 10 -4 10 -10z m-5630 -15 c0 -16 -27 -32 -37
-22 -3 4 -3 13 0 22 8 20 37 20 37 0z m4640 5 c0 -5 -2 -10 -4 -10 -3 0 -8 5
-11 10 -3 6 -1 10 4 10 6 0 11 -4 11 -10z m1105 1 c3 -5 1 -12 -5 -16 -5 -3
-10 1 -10 9 0 18 6 21 15 7z m145 -7 c0 -8 -4 -12 -10 -9 -5 3 -10 10 -10 16
0 5 5 9 10 9 6 0 10 -7 10 -16z m-3190 -10 c0 -8 -4 -12 -10 -9 -5 3 -10 10
-10 16 0 5 5 9 10 9 6 0 10 -7 10 -16z m2910 -19 c0 -5 -5 -3 -10 5 -8 13 -10
12 -10 -2 0 -10 -5 -18 -11 -18 -5 0 -8 3 -6 8 2 4 7 16 11 27 6 16 9 17 16 5
6 -8 10 -19 10 -25z m-2740 15 c0 -5 -4 -10 -10 -10 -5 0 -10 5 -10 10 0 6 5
10 10 10 6 0 10 -4 10 -10z m1400 0 c0 -5 -4 -10 -10 -10 -5 0 -10 5 -10 10 0
6 5 10 10 10 6 0 10 -4 10 -10z m40 0 c0 -5 -4 -10 -9 -10 -6 0 -13 5 -16 10
-3 6 1 10 9 10 9 0 16 -4 16 -10z m245 0 c-3 -5 -14 -10 -23 -10 -15 0 -15 2
-2 10 20 13 33 13 25 0z m369 -5 c-4 -8 -8 -15 -10 -15 -2 0 -4 7 -4 15 0 8 4
15 10 15 5 0 7 -7 4 -15z m776 6 c0 -11 -49 -21 -55 -11 -2 4 -2 10 2 14 10 9
53 7 53 -3z m-2545 -11 c3 -5 -1 -10 -9 -10 -8 0 -18 5 -21 10 -3 6 1 10 9 10
8 0 18 -4 21 -10z m1446 -7 c13 -16 12 -17 -3 -4 -10 7 -18 15 -18 17 0 8 8 3
21 -13z m136 6 c7 -7 30 -12 52 -12 41 0 72 -19 51 -32 -5 -3 -10 1 -10 9 0
20 -19 20 -47 1 -12 -9 -24 -11 -27 -6 -4 5 0 12 6 14 7 3 -2 6 -21 6 -31 1
-33 -1 -27 -25 8 -31 -1 -84 -15 -84 -5 0 -9 7 -9 15 0 8 5 15 10 15 14 0 12
16 -4 32 -12 12 -12 19 0 46 14 34 23 39 41 21z m736 -9 c3 -11 1 -20 -4 -20
-5 0 -9 2 -9 4 0 2 -3 11 -6 20 -3 9 -2 16 4 16 5 0 12 -9 15 -20z m57 -1 c0
-6 -4 -7 -10 -4 -5 3 -10 11 -10 16 0 6 5 7 10 4 6 -3 10 -11 10 -16z m-1095
-29 c15 0 34 14 29 21 -3 5 0 9 5 9 6 0 11 -8 11 -18 0 -10 5 -23 12 -30 9 -9
9 -12 0 -12 -7 0 -12 5 -12 11 0 6 -7 8 -16 5 -23 -9 -55 21 -46 42 6 14 7 13
10 -5 2 -13 5 -23 7 -23z m449 -18 c-6 -13 -9 -11 -13 13 -4 17 -2 33 4 37 12
9 19 -27 9 -50z m541 48 c3 -5 1 -10 -4 -10 -6 0 -11 5 -11 10 0 6 2 10 4 10
3 0 8 -4 11 -10z m-901 -15 c-4 -8 -7 -15 -9 -15 -2 0 -5 7 -9 15 -3 9 0 15 9
15 9 0 12 -6 9 -15z m711 5 c-3 -5 -11 -10 -16 -10 -6 0 -7 5 -4 10 3 6 11 10
16 10 6 0 7 -4 4 -10z m465 -9 c0 -10 -30 -24 -37 -17 -3 3 -2 9 2 15 8 13 35
15 35 2z m85 -1 c-3 -5 -12 -7 -20 -3 -21 7 -19 13 6 13 11 0 18 -4 14 -10z
m-1519 -37 c-11 -11 -17 4 -9 23 7 18 8 18 11 1 2 -10 1 -21 -2 -24z m1004 33
c0 -3 -4 -8 -10 -11 -5 -3 -10 -1 -10 4 0 6 5 11 10 11 6 0 10 -2 10 -4z m620
-16 c0 -5 -7 -10 -15 -10 -8 0 -15 5 -15 10 0 6 7 10 15 10 8 0 15 -4 15 -10z
m-1490 -25 c0 -29 -8 -32 -26 -7 -19 24 -17 32 6 32 15 0 20 -7 20 -25z m420
21 c0 -11 -19 -15 -25 -6 -3 5 1 10 9 10 9 0 16 -2 16 -4z m378 -15 c3 -8 -1
-12 -9 -9 -7 2 -15 10 -17 17 -3 8 1 12 9 9 7 -2 15 -10 17 -17z m272 9 c0 -5
-7 -10 -15 -10 -8 0 -15 5 -15 10 0 6 7 10 15 10 8 0 15 -4 15 -10z m-698 -25
c6 -29 5 -30 -16 -9 -9 8 -14 20 -11 25 11 16 23 9 27 -16z m512 9 c3 -8 2
-12 -4 -9 -6 3 -10 10 -10 16 0 14 7 11 14 -7z m482 -9 c-8 -21 14 -19 31 3
13 16 13 16 11 -3 -1 -11 1 -25 5 -32 12 -19 -13 -26 -32 -9 -10 9 -25 16 -34
16 -9 0 -19 4 -22 10 -3 6 1 7 9 4 11 -4 16 0 16 10 0 9 5 16 11 16 6 0 9 -7
5 -15z m-1251 -5 c3 -5 1 -10 -4 -10 -6 0 -11 5 -11 10 0 6 2 10 4 10 3 0 8
-4 11 -10z m835 -12 c-1 -27 -27 -65 -37 -54 -4 4 -2 11 5 15 9 5 11 17 6 34
-5 21 -2 27 10 27 10 0 16 -8 16 -22z m68 -4 c-9 -9 -21 -13 -28 -9 -14 9 5
25 30 25 12 0 12 -3 -2 -16z m238 -2 c1 -7 0 -8 -2 -3 -3 6 -12 7 -21 4 -11
-4 -14 -3 -9 6 9 14 29 10 32 -7z m197 1 c-7 -2 -19 -2 -25 0 -7 3 -2 5 12 5
14 0 19 -2 13 -5z m-5852 -20 c13 -16 12 -17 -3 -4 -17 13 -22 21 -14 21 2 0
10 -8 17 -17z m4323 2 c-4 -10 0 -15 12 -16 11 0 14 -3 7 -5 -7 -3 -22 0 -35
7 -22 12 -22 12 -3 20 11 4 21 8 22 8 1 1 0 -6 -3 -14z m96 5 c0 -5 -7 -7 -15
-4 -8 4 -15 8 -15 10 0 2 7 4 15 4 8 0 15 -4 15 -10z m197 4 c-3 -3 -12 -4
-19 -1 -8 3 -5 6 6 6 11 1 17 -2 13 -5z m-4151 -19 c10 -8 14 -15 7 -15 -19 0
-43 11 -43 21 0 13 14 11 36 -6z m2572 1 c-22 -16 -23 -30 -3 -22 9 3 15 0 15
-9 0 -19 -14 -19 -30 0 -16 19 -6 45 17 45 17 -1 17 -1 1 -14z m2672 4 c0 -5
-4 -10 -10 -10 -5 0 -10 5 -10 10 0 6 5 10 10 10 6 0 10 -4 10 -10z m-5635
-10 c-3 -5 -11 -10 -16 -10 -6 0 -7 5 -4 10 3 6 11 10 16 10 6 0 7 -4 4 -10z
m4321 -17 c-10 -10 -19 5 -10 18 6 11 8 11 12 0 2 -7 1 -15 -2 -18z m-74 -58
c2 -22 8 -44 13 -48 6 -5 4 -7 -5 -4 -8 2 -14 11 -12 20 4 24 -19 32 -25 8 -8
-30 -33 -27 -33 4 0 15 -6 25 -15 25 -9 0 -12 6 -9 15 7 17 34 21 34 4 0 -5 5
-7 10 -4 6 3 10 16 10 28 0 39 28 -4 32 -48z m-1396 8 c-10 -10 -19 5 -10 18
6 11 8 11 12 0 2 -7 1 -15 -2 -18z m-76 7 c0 -5 -4 -10 -10 -10 -5 0 -10 5
-10 10 0 6 5 10 10 10 6 0 10 -4 10 -10z m1505 0 c3 -5 1 -10 -4 -10 -6 0 -11
5 -11 10 0 6 2 10 4 10 3 0 8 -4 11 -10z m-3910 -30 c3 -11 13 -20 20 -20 8 0
23 -9 33 -20 15 -17 30 -20 74 -18 59 2 91 -13 81 -38 -3 -7 -8 -12 -13 -9 -7
4 -30 -38 -30 -56 0 -6 -18 -32 -41 -57 -22 -26 -48 -59 -57 -75 -9 -15 -22
-25 -29 -23 -6 3 -17 -2 -24 -10 -8 -10 -15 -11 -24 -4 -6 5 -15 7 -18 3 -4
-3 -7 -1 -7 6 0 19 -42 58 -47 44 -9 -26 -31 -12 -49 30 -10 23 -19 51 -21 62
-1 11 -5 34 -8 50 -5 28 -4 27 8 -5 9 -23 21 -36 36 -38 19 -3 21 0 15 25 -8
33 -24 54 -25 33 0 -8 -7 2 -16 23 -21 51 -11 84 27 89 18 3 35 -1 44 -10 13
-14 16 -12 27 11 14 32 35 35 44 7z m-395 -4 c0 -3 -4 -8 -10 -11 -5 -3 -10
-1 -10 4 0 6 5 11 10 11 6 0 10 -2 10 -4z m902 -46 c-5 -49 -67 -106 -124
-115 -53 -9 -77 -21 -101 -49 -19 -21 -19 -21 -13 14 7 40 35 73 81 94 21 10
35 26 40 43 11 45 24 54 74 51 l46 -3 -3 -35z m3335 -6 c-3 -3 -12 -4 -19 -1
-8 3 -5 6 6 6 11 1 17 -2 13 -5z m-4177 -18 c0 -11 -19 -15 -25 -6 -3 5 1 10
9 10 9 0 16 -2 16 -4z m94 -92 c3 -8 2 -12 -4 -9 -6 3 -10 10 -10 16 0 14 7
11 14 -7z m-39 -22 c-3 -3 -11 0 -18 7 -9 10 -8 11 6 5 10 -3 15 -9 12 -12z
m91 -84 c5 -35 2 -46 -10 -51 -23 -9 -52 49 -36 69 7 7 10 20 7 28 -8 20 5 29
20 13 8 -7 16 -34 19 -59z m547 -44 c21 -14 45 -23 53 -20 9 3 12 1 9 -4 -3
-6 1 -10 10 -10 8 0 21 -12 27 -26 10 -22 9 -27 -5 -35 -9 -6 -17 -15 -17 -22
0 -15 -50 -19 -51 -3 0 6 -5 0 -10 -13 -6 -15 -6 -28 1 -36 13 -16 -17 -30
-34 -16 -21 18 -85 -10 -114 -48 -41 -53 -53 -82 -55 -129 0 -23 -5 -42 -10
-42 -4 0 -6 3 -3 8 8 13 -20 41 -45 46 -13 3 -26 5 -28 5 -2 1 1 7 7 14 6 7 8
29 6 49 -4 24 1 48 12 70 10 18 17 40 16 48 -3 18 64 100 81 100 7 0 32 20 57
44 25 24 47 44 50 45 3 0 22 -11 43 -25z m1235 -40 c14 8 35 -21 26 -36 -4 -7
-7 -25 -6 -41 2 -16 -2 -35 -8 -42 -6 -7 -7 -16 -3 -18 7 -5 10 -302 3 -302
-1 0 -4 -49 -5 -110 -8 -273 -26 -577 -35 -594 -10 -18 -62 37 -157 168 -71
97 -77 103 -90 85 -10 -14 -12 -31 -7 -59 4 -22 8 -102 10 -177 1 -76 8 -162
14 -193 14 -65 5 -139 -15 -131 -20 7 -43 -23 -26 -34 10 -6 11 -13 3 -26 -10
-19 -11 -19 -18 0 -4 10 -2 32 3 47 12 32 1 48 -21 30 -11 -9 -17 -4 -30 23
-9 19 -16 43 -16 54 0 12 -5 24 -10 27 -6 4 -8 33 -5 73 5 58 11 150 18 270 1
24 14 45 49 80 26 26 54 64 63 85 14 33 14 43 1 86 -13 43 -12 57 4 137 10 49
21 123 25 164 8 87 11 95 33 78 14 -10 15 -10 5 2 -7 8 -13 18 -13 22 0 4 6 8
13 8 12 0 37 44 37 67 0 7 7 13 16 13 8 0 12 5 9 10 -4 6 -11 8 -16 5 -15 -10
-10 12 6 25 11 9 14 22 9 43 -5 26 -4 29 12 23 15 -6 17 -5 7 5 -20 20 -15 26
17 21 18 -3 30 0 30 7 0 6 9 20 20 31 13 13 20 33 20 58 0 25 3 33 9 23 5 -7
13 -11 19 -7z m-1598 -68 c0 -2 -7 -7 -16 -10 -8 -3 -12 -2 -9 4 6 10 25 14
25 6z m1 -159 c-10 -9 -11 -8 -5 6 3 10 9 15 12 12 3 -3 0 -11 -7 -18z m366
-17 c-3 -11 -1 -20 4 -20 5 0 9 -4 9 -10 0 -12 -37 -13 -44 -2 -5 9 20 52 31
52 3 0 3 -9 0 -20z m105 7 c15 -12 15 -14 -2 -25 -16 -10 -21 -8 -29 6 -6 9
-11 12 -11 5 0 -21 -26 -14 -27 7 -1 15 4 20 25 20 15 0 35 -6 44 -13z m-397
-87 c-3 -5 -11 -10 -16 -10 -6 0 -7 5 -4 10 3 6 11 10 16 10 6 0 7 -4 4 -10z
m-75 -77 c-3 -30 11 -63 27 -63 10 0 12 -6 8 -20 -5 -15 -2 -20 12 -20 29 -1
135 -89 216 -178 25 -28 26 -32 10 -41 -17 -9 -17 -11 -2 -26 15 -15 15 -20 2
-47 -14 -27 -14 -31 2 -46 16 -16 17 -15 11 11 -5 20 -3 27 9 27 8 0 15 7 15
15 0 19 10 19 35 1 11 -7 35 -13 53 -14 21 0 56 -17 101 -46 133 -88 346 -173
400 -159 15 4 22 -1 27 -21 3 -14 12 -26 19 -26 11 0 10 -10 -3 -47 -9 -28
-18 -41 -20 -31 -2 10 -9 15 -18 11 -9 -3 -12 -13 -9 -24 6 -19 -25 -58 -47
-60 -10 0 -10 -2 0 -6 20 -8 14 -30 -10 -37 -19 -5 -20 -8 -8 -16 11 -7 12
-12 3 -21 -9 -9 -21 -6 -50 12 -52 33 -112 59 -134 59 -10 0 -20 4 -24 9 -3 5
-19 12 -36 16 -71 16 -124 62 -115 99 6 25 -10 43 -84 91 -55 37 -84 64 -196
185 -104 112 -156 190 -173 257 -7 26 -17 56 -22 65 -5 10 -9 29 -9 42 0 14
-4 28 -10 31 -16 10 -12 35 6 35 8 0 15 -8 14 -17z m430 -183 c0 -5 -4 -10
-10 -10 -5 0 -10 5 -10 10 0 6 5 10 10 10 6 0 10 -4 10 -10z m-130 -151 c0 -6
7 -8 16 -5 9 3 14 1 12 -5 -2 -6 -7 -10 -11 -10 -4 1 -14 1 -22 1 -8 0 -15 7
-15 15 0 8 5 15 10 15 6 0 10 -5 10 -11z m580 -548 c0 -6 -4 -13 -10 -16 -5
-3 -10 1 -10 9 0 9 5 16 10 16 6 0 10 -4 10 -9z m-165 -41 c-3 -5 -10 -10 -16
-10 -5 0 -9 5 -9 10 0 6 7 10 16 10 8 0 12 -4 9 -10z m313 -25 c18 -39 14 -48
-10 -25 -12 11 -25 20 -30 20 -4 0 -8 7 -8 15 0 25 36 17 48 -10z m374 -185
c59 -54 121 -134 111 -143 -3 -4 -1 -13 5 -20 16 -19 4 -29 -19 -16 -11 5 -19
7 -19 4 0 -3 -18 6 -40 20 -22 14 -44 25 -49 25 -5 0 -14 7 -21 15 -7 8 -20
15 -30 15 -15 0 -19 10 -22 55 -1 30 1 55 6 55 4 0 6 6 3 14 -6 14 0 26 13 26
4 0 32 -22 62 -50z m-587 -49 c3 -5 1 -12 -5 -16 -5 -3 -10 1 -10 9 0 18 6 21
15 7z m565 -186 c0 -8 4 -14 8 -12 11 3 72 -49 72 -62 0 -10 5 -12 25 -11 8 1
36 -28 35 -36 -1 -4 10 -14 25 -24 31 -20 66 -70 59 -82 -3 -4 2 -8 11 -8 12
0 15 -5 11 -16 -3 -9 -6 -20 -6 -25 0 -5 -7 -9 -15 -9 -8 0 -15 -5 -15 -12 0
-9 -3 -9 -12 0 -7 7 -19 12 -27 12 -12 0 -13 -2 -3 -9 11 -6 11 -10 0 -18 -22
-18 -48 -11 -74 19 -13 16 -24 26 -24 21 -2 -26 -43 79 -64 165 -29 113 -30
122 -16 122 6 0 10 -7 10 -15z m-3095 -409 c15 -11 17 -17 8 -27 -6 -8 -17
-34 -24 -59 -7 -25 -17 -50 -22 -57 -5 -7 -6 -16 -3 -21 3 -5 1 -24 -4 -44
-12 -42 -61 -80 -98 -76 -23 3 -27 7 -25 33 1 16 7 31 13 33 5 2 10 11 10 21
0 9 12 21 28 27 23 9 28 17 30 47 2 23 -2 37 -9 37 -18 0 0 51 27 77 29 27 43
28 69 9z m4345 -135 c0 -38 -11 -72 -21 -66 -4 3 -6 12 -2 20 3 8 0 15 -6 15
-12 0 -15 29 -5 54 9 23 34 7 34 -23z m-1060 -31 c0 -5 -4 -10 -10 -10 -5 0
-10 5 -10 10 0 6 5 10 10 10 6 0 10 -4 10 -10z m980 -25 c0 -8 -4 -15 -10 -15
-5 0 -10 7 -10 15 0 8 5 15 10 15 6 0 10 -7 10 -15z m40 -15 c8 -11 20 -20 27
-20 7 0 13 -4 13 -9 0 -6 -9 -9 -20 -8 -11 1 -20 6 -20 11 0 19 -18 -9 -23
-34 -2 -14 -5 -1 -6 28 -1 56 6 64 29 32z m-40 -72 c0 -34 -2 -59 -4 -57 -8
10 -14 119 -5 119 5 0 9 -28 9 -62z m77 -8 c-3 -11 -1 -23 4 -26 15 -9 10 -23
-12 -35 -19 -10 -20 -9 -14 12 7 22 7 22 -10 5 -12 -11 -21 -14 -28 -7 -15 15
0 41 23 41 11 0 20 7 20 15 0 8 5 15 11 15 6 0 9 -9 6 -20z m950 -72 c-3 -8
-6 -5 -6 6 -1 11 2 17 5 13 3 -3 4 -12 1 -19z m-5247 -37 c0 -12 -11 -23 -29
-29 -24 -9 -29 -8 -25 4 2 8 6 21 9 29 7 22 45 19 45 -4z m4390 -21 c0 -5 -4
-10 -10 -10 -5 0 -10 5 -10 10 0 6 5 10 10 10 6 0 10 -4 10 -10z m-5615 -18
c26 -18 55 -67 55 -94 0 -35 -40 -78 -72 -78 -13 0 -34 7 -47 16 -20 14 -22
22 -17 58 3 22 7 50 8 61 4 38 44 58 73 37z m965 -27 c0 -8 -4 -15 -9 -15 -13
0 -22 16 -14 24 11 11 23 6 23 -9z m4 -155 c32 -12 35 -49 5 -76 -15 -14 -24
-16 -37 -8 -21 13 -28 60 -11 80 14 17 11 16 43 4z m-250 -157 c2 -10 6 -53 8
-97 2 -66 0 -80 -14 -90 -13 -8 -23 -8 -35 0 -38 24 -18 204 22 204 7 0 16 -8
19 -17z m4816 -12 c0 -23 -14 -41 -31 -41 -19 0 -27 29 -12 43 10 10 43 8 43
-2z m-5078 -56 c16 -13 46 -29 66 -35 45 -12 81 -49 107 -108 17 -39 57 -79
88 -87 41 -10 56 -19 65 -40 9 -18 7 -26 -7 -39 -25 -23 -41 -20 -77 15 -31
30 -33 31 -65 15 -45 -20 -107 -26 -162 -14 -34 7 -52 18 -76 49 -46 57 -84
70 -139 50 -42 -15 -44 -15 -58 3 -20 28 -18 106 4 132 9 12 37 36 61 53 37
26 53 31 104 31 48 0 64 -4 89 -25z m5488 -225 c0 -5 -4 -10 -10 -10 -5 0 -10
5 -10 10 0 6 5 10 10 10 6 0 10 -4 10 -10z m-5546 -177 c78 -31 103 -36 176
-37 90 -2 125 -14 170 -59 14 -13 37 -32 52 -41 28 -18 31 -49 5 -54 -10 -2
-17 1 -17 7 0 5 -16 13 -36 17 -29 5 -47 1 -85 -20 -27 -14 -60 -26 -75 -26
-25 0 -83 35 -134 80 -22 20 -33 22 -91 17 -88 -7 -104 4 -103 70 1 61 9 83
30 83 9 0 58 -16 108 -37z m5171 -33 c3 -5 1 -10 -4 -10 -6 0 -11 5 -11 10 0
6 2 10 4 10 3 0 8 -4 11 -10z m42 -50 c-1 -11 -8 -20 -15 -20 -10 0 -12 -7 -8
-24 3 -14 2 -28 -4 -31 -5 -3 -10 0 -10 7 0 7 -3 23 -6 36 -5 16 -3 22 7 20 7
-2 14 3 15 10 3 20 4 22 13 22 6 0 9 -9 8 -20z m28 -40 c3 -5 -1 -10 -9 -10
-9 0 -16 5 -16 10 0 6 4 10 9 10 6 0 13 -4 16 -10z m205 -10 c0 -5 -5 -10 -11
-10 -5 0 -7 5 -4 10 3 6 8 10 11 10 2 0 4 -4 4 -10z m-205 -40 c3 -5 0 -7 -8
-4 -18 6 -32 -12 -17 -21 8 -5 7 -11 -1 -21 -9 -11 -8 -15 5 -20 9 -3 16 -14
15 -23 0 -10 -2 -11 -6 -3 -2 6 -11 12 -18 12 -31 0 -40 72 -10 82 29 9 33 9
40 -2z"/>
<path d="M6401 4534 c0 -11 3 -14 6 -6 3 7 2 16 -1 19 -3 4 -6 -2 -5 -13z"/>
<path d="M6355 4320 c3 -5 10 -10 16 -10 5 0 9 5 9 10 0 6 -7 10 -16 10 -8 0
-12 -4 -9 -10z"/>
<path d="M4570 4492 c0 -12 19 -26 26 -19 2 2 -2 10 -11 17 -9 8 -15 8 -15 2z"/>
<path d="M7547 4343 c-4 -6 -16 -10 -26 -8 -23 4 -30 -11 -20 -45 4 -14 8 -20
8 -15 1 6 5 5 9 -2 14 -23 44 12 40 49 -2 20 -6 28 -11 21z m-7 -49 c0 -14 -3
-14 -15 -4 -8 7 -15 14 -15 16 0 2 7 4 15 4 8 0 15 -7 15 -16z"/>
<path d="M7578 4299 c4 -24 7 -28 13 -16 5 8 6 22 3 31 -11 27 -21 17 -16 -15z"/>
<path d="M7726 4307 c3 -10 9 -15 12 -12 3 3 0 11 -7 18 -10 9 -11 8 -5 -6z"/>
<path d="M6850 4260 c-8 -5 -25 -10 -37 -10 -17 0 -22 -7 -25 -32 -2 -23 -8
-32 -18 -31 -17 3 -20 -33 -5 -58 5 -7 8 -21 7 -30 -2 -10 6 -19 18 -22 25 -6
36 9 15 20 -17 10 -28 50 -18 66 4 6 10 3 15 -9 5 -12 6 -1 2 29 -5 46 -5 47
23 47 17 0 33 8 41 20 13 22 6 26 -18 10z"/>
<path d="M7440 4253 c0 -15 -2 -16 -10 -3 -8 13 -10 13 -10 -1 0 -9 -7 -22
-15 -29 -8 -7 -15 -16 -15 -21 0 -5 7 -9 15 -9 8 0 15 9 15 20 0 13 7 20 20
20 13 0 20 7 20 20 0 11 -4 20 -10 20 -5 0 -10 -8 -10 -17z"/>
<path d="M6740 4241 c0 -6 5 -11 10 -11 6 0 10 -6 10 -14 0 -8 5 -18 10 -21 6
-4 10 5 10 21 0 15 -3 24 -7 21 -3 -4 -12 -2 -20 4 -9 9 -13 8 -13 0z"/>
<path d="M6895 4240 c3 -5 8 -10 11 -10 2 0 4 5 4 10 0 6 -5 10 -11 10 -5 0
-7 -4 -4 -10z"/>
<path d="M7596 4217 c3 -10 9 -15 12 -12 3 3 0 11 -7 18 -10 9 -11 8 -5 -6z"/>
<path d="M6845 4210 c-3 -5 3 -10 14 -10 12 0 21 5 21 10 0 6 -6 10 -14 10 -8
0 -18 -4 -21 -10z"/>
<path d="M7457 4214 c-8 -8 1 -24 14 -24 5 0 9 7 9 15 0 15 -12 20 -23 9z"/>
<path d="M7676 4201 c-4 -5 -2 -12 3 -15 5 -4 12 -2 15 3 4 5 2 12 -3 15 -5 4
-12 2 -15 -3z"/>
<path d="M7221 4174 c0 -11 3 -14 6 -6 3 7 2 16 -1 19 -3 4 -6 -2 -5 -13z"/>
<path d="M7290 4180 c0 -5 7 -10 15 -10 8 0 15 5 15 10 0 6 -7 10 -15 10 -8 0
-15 -4 -15 -10z"/>
<path d="M7431 4176 c-7 -9 -8 -17 -2 -20 5 -3 11 -1 13 6 3 8 12 9 36 0 40
-14 41 -7 2 13 -35 18 -35 18 -49 1z"/>
<path d="M7601 4174 c0 -11 3 -14 6 -6 3 7 2 16 -1 19 -3 4 -6 -2 -5 -13z"/>
<path d="M7330 4165 c0 -9 6 -12 15 -9 8 4 12 10 9 15 -8 14 -24 10 -24 -6z"/>
<path d="M7390 4160 c0 -11 2 -20 4 -20 2 0 6 9 9 20 3 11 1 20 -4 20 -5 0 -9
-9 -9 -20z"/>
<path d="M7535 4160 c4 -6 11 -8 16 -5 14 9 11 15 -7 15 -8 0 -12 -5 -9 -10z"/>
<path d="M7660 4140 c0 -5 5 -10 10 -10 6 0 10 5 10 10 0 6 -4 10 -10 10 -5 0
-10 -4 -10 -10z"/>
<path d="M7330 4131 c0 -10 19 -25 25 -20 1 2 -3 10 -11 17 -8 7 -14 8 -14 3z"/>
<path d="M7581 4124 c6 -8 18 -14 26 -14 20 0 8 16 -17 23 -17 4 -19 3 -9 -9z"/>
<path d="M7219 4119 c-11 -7 -11 -9 4 -9 9 0 26 -9 37 -20 14 -14 20 -16 20
-6 0 21 -44 46 -61 35z"/>
<path d="M7170 4089 c0 -11 5 -17 10 -14 6 3 10 13 10 21 0 8 -4 14 -10 14 -5
0 -10 -9 -10 -21z"/>
<path d="M7435 4100 c3 -5 8 -10 11 -10 2 0 4 5 4 10 0 6 -5 10 -11 10 -5 0
-7 -4 -4 -10z"/>
<path d="M7600 4086 c0 -9 -5 -16 -11 -16 -5 0 -7 -4 -4 -10 3 -5 13 -10 21
-10 16 0 19 36 4 45 -5 3 -10 -1 -10 -9z"/>
<path d="M7200 4070 c0 -5 4 -10 9 -10 6 0 13 5 16 10 3 6 -1 10 -9 10 -9 0
-16 -4 -16 -10z"/>
<path d="M7510 4065 c0 -8 2 -15 4 -15 2 0 6 7 10 15 3 8 1 15 -4 15 -6 0 -10
-7 -10 -15z"/>
<path d="M6780 4050 c0 -5 5 -10 10 -10 6 0 10 5 10 10 0 6 -4 10 -10 10 -5 0
-10 -4 -10 -10z"/>
<path d="M7052 4049 c2 -7 10 -15 17 -17 8 -3 12 1 9 9 -2 7 -10 15 -17 17 -8
3 -12 -1 -9 -9z"/>
<path d="M7627 4029 c7 -7 15 -10 18 -7 3 3 -2 9 -12 12 -14 6 -15 5 -6 -5z"/>
<path d="M7470 4020 c0 -5 5 -10 10 -10 6 0 10 5 10 10 0 6 -4 10 -10 10 -5 0
-10 -4 -10 -10z"/>
<path d="M7061 3994 c-12 -14 -11 -15 8 -12 12 1 22 7 22 13 1 16 -15 15 -30
-1z"/>
<path d="M6885 3979 c-10 -15 1 -23 20 -15 9 3 13 10 10 16 -8 13 -22 13 -30
-1z"/>
<path d="M7103 3957 c0 -7 6 -18 12 -24 10 -9 13 -6 13 13 0 13 -6 24 -13 24
-6 0 -12 -6 -12 -13z"/>
<path d="M6915 3930 c3 -5 10 -10 16 -10 5 0 9 5 9 10 0 6 -7 10 -16 10 -8 0
-12 -4 -9 -10z"/>
<path d="M6934 3899 c-3 -6 -2 -15 2 -19 12 -11 65 0 58 11 -3 5 -9 7 -14 4
-5 -3 -11 -1 -15 5 -8 13 -22 13 -31 -1z"/>
<path d="M6830 3879 c0 -4 11 -9 25 -11 15 -3 25 -1 25 6 0 6 -11 11 -25 11
-14 0 -25 -3 -25 -6z"/>
<path d="M6760 3859 c-7 -11 -9 -23 -7 -26 3 -2 8 5 12 17 4 13 12 19 21 16 9
-3 12 -1 9 4 -10 16 -23 12 -35 -11z"/>
<path d="M6838 3833 c7 -3 16 -2 19 1 4 3 -2 6 -13 5 -11 0 -14 -3 -6 -6z"/>
<path d="M6943 3794 c-15 -16 -16 -24 -4 -24 8 0 24 30 19 35 -2 2 -9 -3 -15
-11z"/>
<path d="M7066 3795 c4 -8 10 -15 15 -15 4 0 6 7 3 15 -4 8 -10 15 -15 15 -4
0 -6 -7 -3 -15z"/>
<path d="M6910 3720 c0 -5 5 -10 11 -10 5 0 7 5 4 10 -3 6 -8 10 -11 10 -2 0
-4 -4 -4 -10z"/>
<path d="M6835 3160 c-3 -5 -1 -10 4 -10 6 0 11 5 11 10 0 6 -2 10 -4 10 -3 0
-8 -4 -11 -10z"/>
<path d="M7408 1265 c-4 -18 -1 -23 14 -22 21 1 25 32 4 40 -9 4 -16 -3 -18
-18z"/>
<path d="M7320 1270 c0 -5 5 -10 10 -10 6 0 10 5 10 10 0 6 -4 10 -10 10 -5 0
-10 -4 -10 -10z"/>
<path d="M7437 1028 c-7 -27 -3 -32 18 -25 19 8 20 47 1 47 -7 0 -16 -10 -19
-22z"/>
<path d="M7491 1004 c0 -11 3 -14 6 -6 3 7 2 16 -1 19 -3 4 -6 -2 -5 -13z"/>
<path d="M5980 3436 c0 -8 -6 -16 -12 -19 -7 -2 -10 -8 -6 -12 12 -13 38 4 38
25 0 11 -4 20 -10 20 -5 0 -10 -6 -10 -14z"/>
<path d="M5788 2449 c-27 -15 -21 -31 10 -27 15 2 27 9 27 17 0 19 -16 23 -37
10z"/>
<path d="M5835 2280 c-3 -5 -1 -10 4 -10 6 0 11 5 11 10 0 6 -2 10 -4 10 -3 0
-8 -4 -11 -10z"/>
<path d="M4270 5615 c-17 -21 -7 -29 19 -15 17 8 21 8 21 -4 0 -7 7 -17 16
-20 25 -9 54 -7 54 5 0 5 5 7 10 4 6 -3 10 -2 10 4 0 15 -18 23 -32 15 -7 -5
-20 -9 -30 -9 -13 -1 -15 2 -7 17 8 15 6 18 -19 18 -16 0 -35 -7 -42 -15z"/>
<path d="M4485 5620 c-3 -5 -1 -10 4 -10 6 0 11 5 11 10 0 6 -2 10 -4 10 -3 0
-8 -4 -11 -10z"/>
<path d="M4537 5610 c3 -11 9 -20 14 -20 4 0 13 9 19 20 9 17 8 20 -14 20 -19
0 -23 -4 -19 -20z"/>
<path d="M4490 5580 c-12 -8 -11 -10 8 -10 12 0 22 5 22 10 0 13 -11 13 -30 0z"/>
<path d="M4430 5531 c0 -6 5 -13 10 -16 6 -3 10 1 10 9 0 9 -4 16 -10 16 -5 0
-10 -4 -10 -9z"/>
<path d="M4728 5493 c7 -3 16 -2 19 1 4 3 -2 6 -13 5 -11 0 -14 -3 -6 -6z"/>
<path d="M4153 5245 c-9 -25 4 -29 17 -6 7 15 7 21 0 21 -6 0 -13 -7 -17 -15z"/>
<path d="M9052 4223 c2 -14 8 -28 15 -30 6 -3 10 4 8 14 -2 10 -4 24 -4 31 -1
6 -6 12 -12 12 -6 0 -9 -12 -7 -27z"/>
<path d="M9591 4188 c0 -10 -8 -18 -16 -18 -8 0 -15 -5 -15 -10 0 -6 8 -10 18
-8 11 2 17 -3 16 -14 -1 -10 2 -18 6 -18 12 0 22 33 11 39 -5 3 -11 15 -14 26
-4 16 -5 17 -6 3z"/>
<path d="M8546 4181 c-4 -7 -5 -15 -2 -18 9 -9 19 4 14 18 -4 11 -6 11 -12 0z"/>
<path d="M9636 4151 c-4 -5 -2 -12 3 -15 5 -4 12 -2 15 3 4 5 2 12 -3 15 -5 4
-12 2 -15 -3z"/>
<path d="M9130 4139 c0 -7 9 -9 21 -6 16 4 24 -1 35 -28 7 -19 19 -37 25 -40
5 -4 8 -13 5 -21 -7 -18 8 -18 24 1 15 17 5 35 -19 35 -13 0 -21 10 -25 35 -6
31 -11 35 -36 35 -17 0 -30 -5 -30 -11z"/>
<path d="M8668 4123 c6 -2 18 -2 25 0 6 3 1 5 -13 5 -14 0 -19 -2 -12 -5z"/>
<path d="M8915 4120 c-3 -5 -1 -10 4 -10 6 0 11 5 11 10 0 6 -2 10 -4 10 -3 0
-8 -4 -11 -10z"/>
<path d="M8588 4094 c4 -22 6 -24 14 -10 5 9 16 16 23 16 17 0 19 -11 6 -25
-6 -6 -4 -15 4 -22 12 -11 14 8 6 60 -1 4 -14 7 -30 7 -25 0 -28 -3 -23 -26z"/>
<path d="M8730 4110 c0 -5 5 -10 10 -10 6 0 10 5 10 10 0 6 -4 10 -10 10 -5 0
-10 -4 -10 -10z"/>
<path d="M9064 4095 c-2 -30 21 -34 35 -6 12 21 5 31 -18 31 -10 0 -17 -9 -17
-25z"/>
<path d="M9121 4098 c0 -9 -4 -25 -7 -35 -5 -17 -5 -17 6 0 6 10 9 25 7 35 -4
15 -5 15 -6 0z"/>
<path d="M9620 4100 c0 -5 7 -10 16 -10 8 0 12 5 9 10 -3 6 -10 10 -16 10 -5
0 -9 -4 -9 -10z"/>
<path d="M8910 4085 c0 -8 5 -15 10 -15 6 0 10 7 10 15 0 8 -4 15 -10 15 -5 0
-10 -7 -10 -15z"/>
<path d="M8527 4083 c-4 -3 -7 -16 -7 -27 1 -21 1 -21 15 -2 8 11 15 23 15 28
0 10 -14 11 -23 1z"/>
<path d="M8680 4074 c0 -8 5 -12 10 -9 6 3 10 10 10 16 0 5 -4 9 -10 9 -5 0
-10 -7 -10 -16z"/>
<path d="M8800 4076 c0 -16 27 -29 35 -16 3 5 -4 14 -15 20 -16 8 -20 8 -20
-4z"/>
<path d="M9696 4082 c-2 -4 2 -15 9 -26 10 -13 18 -15 30 -9 15 9 14 12 -9 26
-14 9 -27 13 -30 9z"/>
<path d="M9803 4083 c-7 -3 -13 -13 -13 -24 0 -10 -4 -19 -9 -19 -5 0 -12 -14
-16 -31 -4 -19 -15 -33 -26 -36 -20 -6 -26 -23 -8 -23 16 0 39 27 39 47 1 17
2 17 16 -2 15 -19 15 -19 12 10 -2 25 1 31 20 33 21 3 32 22 13 22 -5 0 -11 6
-13 13 -2 8 -9 12 -15 10z"/>
<path d="M9027 4074 c-12 -13 -8 -42 8 -48 16 -6 18 7 6 37 -3 10 -10 15 -14
11z"/>
<path d="M9155 4070 c3 -5 10 -10 16 -10 5 0 9 5 9 10 0 6 -7 10 -16 10 -8 0
-12 -4 -9 -10z"/>
<path d="M9655 4070 c-3 -5 1 -10 9 -10 9 0 16 5 16 10 0 6 -4 10 -9 10 -6 0
-13 -4 -16 -10z"/>
<path d="M8739 4063 c0 -5 -2 -16 -4 -25 -3 -16 -1 -16 21 -1 13 8 24 19 24
24 0 11 -40 12 -41 2z"/>
<path d="M8858 4063 c7 -3 16 -2 19 1 4 3 -2 6 -13 5 -11 0 -14 -3 -6 -6z"/>
<path d="M9296 4051 c-4 -7 -5 -15 -2 -18 9 -9 19 4 14 18 -4 11 -6 11 -12 0z"/>
<path d="M9879 4042 c-8 -10 -14 -23 -12 -29 2 -6 0 -14 -6 -17 -6 -4 -8 -13
-4 -22 4 -11 0 -14 -21 -10 -14 2 -28 0 -31 -5 -4 -5 1 -9 9 -9 9 0 23 -11 31
-24 11 -16 22 -22 35 -19 24 6 26 19 3 31 -17 10 -12 42 8 42 6 0 9 -7 5 -15
-8 -21 6 -19 27 5 9 11 14 26 11 35 -4 10 0 15 12 16 17 0 16 1 -2 9 -12 5
-25 13 -29 19 -9 15 -18 14 -36 -7z m36 -12 c-3 -5 -12 -10 -18 -10 -7 0 -6 4
3 10 19 12 23 12 15 0z"/>
<path d="M9983 4041 c3 -11 -3 -28 -14 -40 -11 -12 -15 -22 -9 -26 6 -3 10
-14 10 -24 0 -14 -6 -17 -27 -14 -25 3 -26 2 -7 -6 23 -10 38 -57 20 -66 -6
-2 -1 -2 11 1 17 4 21 2 17 -9 -3 -8 -1 -18 5 -22 7 -4 11 7 11 29 0 20 -4 36
-8 36 -12 0 -10 44 2 53 8 5 7 10 -3 16 -9 6 -10 11 -2 15 14 9 14 76 0 76 -6
0 -9 -9 -6 -19z"/>
<path d="M8675 4030 c-3 -5 -1 -10 4 -10 6 0 11 5 11 10 0 6 -2 10 -4 10 -3 0
-8 -4 -11 -10z"/>
<path d="M8893 4033 c-7 -2 -13 -12 -12 -21 0 -11 2 -13 6 -4 4 10 8 10 19 1
11 -9 14 -7 14 10 0 21 -5 24 -27 14z"/>
<path d="M9615 4030 c-13 -6 -15 -9 -5 -9 10 -1 11 -4 4 -9 -6 -4 -13 -15 -17
-25 -4 -10 -15 -17 -24 -15 -14 2 -18 -3 -16 -24 1 -18 -3 -28 -12 -28 -9 0
-12 -6 -8 -15 7 -21 35 -15 39 7 3 25 31 50 50 46 9 -2 20 6 25 20 5 13 5 22
-1 22 -6 0 -10 -4 -10 -10 0 -5 -7 -10 -15 -10 -12 0 -13 4 -3 26 10 22 16 25
46 19 23 -4 32 -3 27 4 -7 13 -52 13 -80 1z"/>
<path d="M8560 4019 c0 -5 5 -7 10 -4 6 3 10 8 10 11 0 2 -4 4 -10 4 -5 0 -10
-5 -10 -11z"/>
<path d="M8775 4020 c3 -5 8 -10 11 -10 2 0 4 5 4 10 0 6 -5 10 -11 10 -5 0
-7 -4 -4 -10z"/>
<path d="M9363 4022 c-18 -2 -33 -8 -33 -14 0 -6 11 -8 25 -6 13 3 26 1 27 -3
2 -5 10 -4 18 1 22 14 1 26 -37 22z"/>
<path d="M9726 4008 c3 -4 9 -8 15 -8 5 0 9 4 9 8 0 5 -7 9 -15 9 -8 0 -12 -4
-9 -9z"/>
<path d="M8697 3975 c10 -13 22 -25 26 -25 4 0 0 11 -10 25 -10 13 -22 25 -26
25 -4 0 0 -11 10 -25z"/>
<path d="M8750 3990 c0 -21 17 -46 25 -38 4 4 0 17 -9 30 -10 14 -16 17 -16 8z"/>
<path d="M9140 3990 c0 -5 7 -10 16 -10 8 0 12 5 9 10 -3 6 -10 10 -16 10 -5
0 -9 -4 -9 -10z"/>
<path d="M9067 3973 c-13 -12 -7 -41 9 -47 26 -10 39 5 19 21 -17 12 -18 13
-1 13 9 0 14 5 11 10 -7 11 -28 13 -38 3z"/>
<path d="M9192 3961 c-11 -7 -11 -9 0 -14 9 -3 15 1 15 9 0 8 -1 14 -1 14 -1
0 -7 -4 -14 -9z"/>
<path d="M9240 3956 c0 -9 5 -16 10 -16 6 0 10 4 10 9 0 6 -4 13 -10 16 -5 3
-10 -1 -10 -9z"/>
<path d="M9403 3955 c-9 -10 -9 -16 -2 -20 14 -9 22 0 17 18 -2 13 -5 13 -15
2z"/>
<path d="M9680 3950 c0 -5 -16 -10 -36 -10 -19 0 -33 -4 -30 -8 8 -14 76 -1
76 14 0 8 -2 14 -5 14 -3 0 -5 -4 -5 -10z"/>
<path d="M9765 3950 c-3 -5 1 -10 10 -10 9 0 13 5 10 10 -3 6 -8 10 -10 10 -2
0 -7 -4 -10 -10z"/>
<path d="M8971 3934 c0 -11 3 -14 6 -6 3 7 2 16 -1 19 -3 4 -6 -2 -5 -13z"/>
<path d="M9770 3905 c7 -9 15 -13 17 -11 7 7 -7 26 -19 26 -6 0 -6 -6 2 -15z"/>
<path d="M8500 3885 c-16 -19 0 -19 36 0 l29 15 -26 0 c-15 0 -32 -7 -39 -15z"/>
<path d="M9490 3890 c0 -5 5 -10 10 -10 6 0 10 5 10 10 0 6 -4 10 -10 10 -5 0
-10 -4 -10 -10z"/>
<path d="M9854 3879 c-3 -6 -12 -8 -20 -5 -7 3 -16 1 -19 -4 -6 -9 14 -14 41
-11 7 1 14 -8 17 -20 6 -24 27 -17 27 9 0 22 -36 46 -46 31z"/>
<path d="M8561 3854 c0 -11 3 -14 6 -6 3 7 2 16 -1 19 -3 4 -6 -2 -5 -13z"/>
<path d="M8808 3863 c7 -3 16 -2 19 1 4 3 -2 6 -13 5 -11 0 -14 -3 -6 -6z"/>
<path d="M9370 3861 c0 -5 5 -13 10 -16 6 -3 10 -2 10 4 0 5 -4 13 -10 16 -5
3 -10 2 -10 -4z"/>
<path d="M8755 3820 c-3 -5 1 -10 9 -10 9 0 16 5 16 10 0 6 -4 10 -9 10 -6 0
-13 -4 -16 -10z"/>
<path d="M9960 3820 c0 -5 5 -10 11 -10 5 0 7 5 4 10 -3 6 -8 10 -11 10 -2 0
-4 -4 -4 -10z"/>
<path d="M9820 3789 c-14 -4 -18 -8 -10 -8 8 -1 25 -4 38 -7 12 -4 22 -2 22 4
0 15 -22 20 -50 11z"/>
<path d="M9887 3782 c2 -11 0 -23 -6 -26 -16 -10 -14 -26 3 -26 8 0 16 -6 19
-12 2 -7 8 -10 12 -6 4 4 2 14 -4 22 -7 8 -11 25 -9 37 2 12 -2 24 -9 26 -7 3
-10 -3 -6 -15z"/>
<path d="M9973 3770 c-2 -19 8 -26 20 -14 7 7 -2 34 -12 34 -4 0 -7 -9 -8 -20z"/>
<path d="M9750 3740 c-9 -6 -10 -10 -3 -10 6 0 15 5 18 10 8 12 4 12 -15 0z"/>
<path d="M8357 3724 c-8 -8 1 -24 14 -24 5 0 9 7 9 15 0 15 -12 20 -23 9z"/>
<path d="M9950 3720 c-13 -8 -12 -10 3 -10 10 0 15 -4 12 -10 -3 -5 -1 -10 4
-10 6 0 11 6 11 14 0 8 6 17 13 19 6 3 3 6 -8 6 -11 0 -27 -4 -35 -9z"/>
<path d="M9970 3401 c0 -5 7 -12 16 -15 14 -5 15 -4 4 9 -14 17 -20 19 -20 6z"/>
<path d="M5652 669 c-8 -13 -19 -18 -31 -14 -17 5 -50 -16 -51 -33 -1 -4 -5
-26 -9 -50 -10 -51 3 -52 30 -2 52 96 69 69 44 -71 -9 -54 -14 -107 -9 -117
20 -47 -3 -221 -40 -287 -6 -11 -11 -37 -12 -58 -2 -33 0 -36 13 -26 12 10 16
10 23 0 5 -10 13 -4 25 22 16 35 17 35 36 16 20 -20 26 -34 9 -24 -6 3 -7 -1
-4 -9 8 -20 44 -21 44 -1 0 8 5 15 10 15 14 0 13 23 -2 38 -7 7 -11 28 -9 47
1 22 -2 35 -9 35 -9 0 -10 15 -5 58 16 117 2 437 -21 473 -8 14 -18 11 -32
-12z"/>
</g>
</svg>
