<?xml version="1.0" standalone="no"?>
<!DOCTYPE svg PUBLIC "-//W3C//DTD SVG 20010904//EN"
 "http://www.w3.org/TR/2001/REC-SVG-20010904/DTD/svg10.dtd">
<svg version="1.0" xmlns="http://www.w3.org/2000/svg"
 width="524.000000pt" height="278.000000pt" viewBox="0 0 524.000000 278.000000"
 preserveAspectRatio="xMidYMid meet">
<metadata>
Created by potrace 1.15, written by Peter Selinger 2001-2017
</metadata>
<g transform="translate(0.000000,278.000000) scale(0.100000,-0.100000)"
fill="#000000" stroke="none">
<path d="M1235 2368 c-94 -48 -145 -131 -145 -233 1 -149 111 -255 267 -255
49 0 72 7 157 51 172 88 242 78 332 -48 55 -78 62 -85 126 -118 96 -51 238
-21 308 63 33 40 60 116 60 167 0 98 -64 197 -151 235 -79 33 -177 26 -242
-18 -167 -113 -273 -104 -361 30 -74 114 -129 148 -241 147 -51 0 -81 -6 -110
-21z"/>
<path d="M1643 1813 c-7 -2 -13 -10 -13 -17 0 -7 -11 -18 -25 -24 -14 -6 -25
-16 -25 -21 0 -12 29 -23 41 -15 5 3 9 1 9 -5 0 -15 -23 -26 -28 -13 -2 7 -10
12 -17 12 -8 0 -21 7 -29 16 -14 14 -19 13 -46 -13 -31 -29 -70 -120 -70 -163
0 -20 2 -22 10 -10 5 8 10 12 11 8 1 -5 3 -12 4 -18 1 -5 3 -15 4 -21 0 -5 6
-7 11 -4 6 3 10 1 10 -4 0 -6 9 -11 20 -11 15 0 20 -7 20 -28 0 -16 -3 -31 -6
-35 -9 -8 -30 14 -38 41 -8 24 -26 30 -26 9 0 -7 14 -35 31 -62 17 -27 35 -58
39 -69 8 -22 40 -28 52 -11 4 6 8 -2 8 -17 0 -16 -4 -28 -10 -28 -5 0 -10 -10
-10 -22 0 -19 -2 -20 -10 -8 -7 11 -10 4 -10 -25 0 -23 -9 -58 -19 -79 -11
-21 -17 -45 -14 -54 4 -13 2 -14 -4 -4 -8 10 -25 3 -77 -32 -36 -24 -72 -46
-78 -48 -7 -3 -8 -10 -4 -17 7 -10 10 -10 16 -1 8 14 30 5 30 -11 0 -6 -5 -7
-10 -4 -6 4 -18 1 -26 -6 -11 -9 -17 -10 -22 -2 -11 18 -37 -7 -50 -47 -5 -19
-15 -51 -21 -71 -14 -44 -14 -69 -1 -69 6 0 10 -6 10 -12 0 -41 26 -91 66
-132 26 -25 50 -44 54 -41 4 2 25 -4 47 -15 46 -22 96 -21 161 4 54 20 106 66
92 80 -14 14 -12 35 5 53 14 14 15 13 9 -11 -8 -32 12 -36 22 -3 4 12 11 25
17 28 5 4 10 39 10 78 0 70 -11 103 -65 205 -23 43 -38 127 -27 148 6 11 8 37
6 57 -3 20 -3 28 -1 19 3 -10 7 -18 9 -18 1 0 21 17 42 38 46 42 58 51 97 72
16 8 47 37 70 64 l41 48 0 100 c0 93 -2 102 -22 116 -13 8 -23 20 -23 28 0 7
-11 24 -25 38 -14 14 -25 21 -25 16 0 -6 9 -19 19 -29 11 -11 17 -22 14 -25
-12 -11 -22 -6 -28 15 -5 15 -10 18 -18 10 -6 -6 -29 -10 -51 -9 l-41 1 38 4
c46 5 48 19 5 33 -32 10 -32 10 10 6 23 -2 42 -2 42 0 0 2 -13 10 -30 19 -39
20 -68 19 -66 -2 1 -13 -9 -17 -43 -19 l-44 -2 27 17 c35 24 12 42 -31 24z"/>
<path d="M3778 1603 c-17 -4 -18 -29 -18 -339 l0 -334 65 0 65 0 0 155 0 155
42 30 c53 38 92 37 122 -3 19 -25 21 -45 25 -183 l3 -154 65 0 65 0 -4 189
c-3 174 -5 192 -24 218 -54 72 -159 90 -246 41 l-48 -27 0 124 c0 119 -1 123
-22 129 -25 6 -64 6 -90 -1z"/>
<path d="M2347 1503 c-4 -3 -7 -28 -7 -55 0 -47 -1 -48 -30 -48 -36 0 -56 -33
-46 -74 5 -19 13 -25 39 -28 l32 -3 5 -145 c6 -161 14 -186 72 -216 23 -12 50
-15 100 -12 78 4 90 14 86 68 -3 35 -3 35 -50 35 -26 0 -53 6 -60 13 -14 14
-25 194 -14 236 6 23 12 25 64 28 l57 3 3 36 c4 45 -10 57 -73 61 l-50 3 -3
53 -3 52 -58 0 c-32 0 -61 -3 -64 -7z"/>
<path d="M2843 1399 c-58 -14 -127 -77 -147 -136 -22 -65 -21 -170 3 -226 19
-45 66 -89 108 -101 84 -26 191 -24 281 5 30 10 32 14 32 55 0 24 -3 44 -7 44
-5 0 -33 -7 -63 -15 -72 -19 -143 -19 -181 1 -31 15 -65 76 -54 94 4 6 71 10
153 10 81 0 152 4 158 8 21 13 25 52 14 108 -26 125 -145 186 -297 153z m120
-91 c31 -16 46 -39 47 -70 l0 -28 -93 0 c-52 0 -96 3 -100 6 -10 11 15 64 40
84 29 22 73 26 106 8z"/>
<path d="M3407 1396 c-102 -28 -157 -113 -157 -242 0 -154 76 -234 220 -233
120 1 170 30 170 99 0 47 -12 51 -65 25 -113 -58 -188 -10 -187 119 0 55 18
102 47 126 24 20 96 15 144 -9 48 -25 54 -19 49 45 -3 33 -8 42 -38 56 -49 24
-126 30 -183 14z"/>
</g>
</svg>
