<?xml version="1.0" standalone="no"?>
<!DOCTYPE svg PUBLIC "-//W3C//DTD SVG 20010904//EN"
 "http://www.w3.org/TR/2001/REC-SVG-20010904/DTD/svg10.dtd">
<svg version="1.0" xmlns="http://www.w3.org/2000/svg"
 width="688.000000pt" height="290.000000pt" viewBox="0 0 688.000000 290.000000"
 preserveAspectRatio="xMidYMid meet">
<metadata>
Created by potrace 1.15, written by Peter Selinger 2001-2017
</metadata>
<g transform="translate(0.000000,290.000000) scale(0.100000,-0.100000)"
fill="#000000" stroke="none">
<path d="M1615 2371 c-112 -38 -175 -98 -238 -226 -80 -162 -171 -237 -312
-254 -66 -8 -73 -7 -121 20 -28 16 -58 29 -67 29 -9 0 -17 5 -17 11 0 6 -10 8
-22 5 -13 -3 -17 -3 -10 0 24 11 11 22 -35 29 -27 3 -65 11 -85 17 -37 11
-116 -2 -144 -24 -6 -4 -19 -6 -28 -2 -9 3 -16 1 -16 -5 0 -6 -6 -11 -13 -11
-7 0 -23 -9 -35 -20 -12 -11 -24 -20 -27 -20 -13 0 -85 -80 -85 -95 0 -9 -4
-13 -10 -10 -7 4 -7 -3 0 -20 13 -35 13 -42 -2 -27 -19 19 -28 14 -28 -12 0
-14 -4 -28 -10 -31 -17 -10 -12 -177 6 -203 8 -12 12 -27 9 -32 -9 -15 77
-132 109 -149 14 -8 26 -18 26 -23 0 -4 10 -8 22 -8 12 0 18 -3 15 -7 -16 -15
104 -56 153 -51 31 3 35 6 32 28 -2 19 0 22 10 12 6 -6 21 -13 33 -13 16 -1
17 -2 3 -6 -10 -2 -18 -9 -18 -15 0 -6 10 -8 23 -5 63 16 91 25 79 26 -23 2
-2 21 24 21 13 0 24 5 24 11 0 6 6 9 14 6 17 -7 78 42 70 55 -3 5 -12 4 -20
-3 -12 -10 -18 -9 -31 4 -14 13 -14 20 -3 46 10 26 18 31 46 31 23 0 34 -5 34
-14 0 -32 17 -22 41 23 21 38 23 49 13 59 -7 6 -20 9 -28 6 -19 -7 -33 23 -19
37 6 6 20 0 37 -16 27 -25 29 -25 47 -9 10 9 19 21 19 26 0 5 7 16 15 24 8 9
15 20 15 26 0 6 -3 8 -7 5 -3 -4 -12 -2 -20 4 -10 9 -13 8 -13 -5 0 -9 -4 -16
-10 -16 -5 0 -10 7 -10 15 0 8 4 15 9 15 5 0 12 8 14 18 4 14 5 15 6 1 2 -33
37 -27 77 13 41 42 83 68 108 68 8 0 18 5 22 11 5 9 -1 10 -20 5 -15 -4 -26
-2 -26 4 0 13 50 25 59 14 3 -5 29 -15 56 -22 99 -26 181 -72 243 -136 81 -84
104 -147 104 -283 -1 -64 -6 -110 -14 -125 -8 -14 -13 -58 -12 -118 0 -78 4
-103 22 -141 35 -71 87 -125 150 -156 50 -25 68 -28 152 -28 85 0 101 3 154
30 57 28 121 91 148 144 41 83 124 183 172 209 17 9 56 19 86 22 l55 6 -95 46
c-52 25 -136 62 -186 81 -174 67 -229 102 -261 168 -53 108 -51 181 9 349 39
109 50 180 38 254 -24 149 -128 267 -279 315 -50 16 -169 12 -226 -8z m-843
-907 c43 -7 61 -24 52 -48 -5 -14 -12 -16 -33 -9 -71 22 -231 0 -231 -32 0 -8
-8 -11 -20 -8 -16 4 -19 11 -14 27 4 11 7 26 7 33 0 14 33 27 102 41 49 9 64
9 137 -4z"/>
<path d="M4319 1876 c-42 -15 -96 -51 -121 -81 -55 -66 -82 -181 -66 -285 26
-166 117 -240 298 -240 148 0 231 45 285 156 31 64 35 80 35 154 0 217 -93
311 -308 310 -48 -1 -103 -7 -123 -14z m206 -103 c92 -44 116 -240 43 -346
-60 -85 -228 -72 -275 22 -27 54 -25 213 3 261 44 76 144 103 229 63z"/>
<path d="M5101 1874 c-145 -53 -221 -172 -209 -329 10 -119 68 -202 178 -253
48 -22 277 -22 335 1 l40 15 0 154 0 153 -127 3 c-121 2 -128 2 -139 -19 -8
-15 -8 -28 0 -45 9 -20 18 -23 73 -26 l63 -3 3 -68 c3 -64 2 -68 -23 -77 -94
-36 -222 25 -254 119 -26 79 -3 189 50 238 63 58 165 68 277 28 38 -14 72 -25
76 -25 4 0 6 24 4 52 -3 51 -5 54 -43 72 -56 27 -241 33 -304 10z"/>
<path d="M5808 1874 c-67 -24 -126 -78 -156 -144 -22 -48 -25 -69 -25 -160 0
-120 17 -173 74 -228 57 -56 90 -66 224 -66 117 -1 121 0 175 31 64 37 80 55
115 122 22 44 25 63 25 155 0 151 -37 227 -135 279 -54 29 -227 35 -297 11z
m212 -102 c23 -11 43 -33 58 -62 20 -39 23 -57 20 -141 -3 -88 -5 -99 -32
-133 -37 -50 -85 -69 -154 -64 -101 9 -145 70 -145 201 0 149 52 217 168 217
28 0 66 -8 85 -18z"/>
<path d="M3679 1858 c-3 -150 4 -565 10 -571 4 -4 81 -6 172 -5 l164 3 0 45 0
45 -107 3 c-94 2 -108 5 -108 20 0 9 -2 121 -3 247 l-2 230 -62 3 c-60 3 -63
2 -64 -20z"/>
</g>
</svg>
